<?xml version="1.0" encoding="utf-8"?>
<!-- Generator: Adobe Illustrator 22.0.1, SVG Export Plug-In . SVG Version: 6.00 Build 0)  -->
<svg version="1.1" id="e05b3689-1b14-4e78-8425-4a330f9f0bbc"
	 xmlns="http://www.w3.org/2000/svg" xmlns:xlink="http://www.w3.org/1999/xlink" x="0px" y="0px" viewBox="0 0 26.2 61"
	 style="enable-background:new 0 0 26.2 61;" xml:space="preserve">
<style type="text/css">
	.st0{fill:#050302;}
</style>
<title>CESAR 2020-tout noir</title>
<path class="st0" d="M11.3,60.3h-0.4c-0.8,0-1.5-0.1-2.2-0.3c-0.6-0.2-1.1-0.7-1.4-1.2c-0.2,0-0.4-0.1-0.6-0.2l0,0H6.7
	c-0.1,0-0.2,0-0.3-0.1c-0.4,0.1-0.8,0.1-1.2,0.1c-0.4-0.1-0.9-0.2-1.2-0.5c-0.3-0.2-0.5-0.5-0.5-0.8v-0.1c0-0.3,0-0.6,0.1-0.9
	c0-0.2,0.1-0.4,0.2-0.5c0.1-0.1,0.1-0.3,0.2-0.5v-0.1c0-0.1,0-0.2-0.2-0.5c-0.3-0.4-0.5-0.9-0.5-1.4c0-0.3,0-1.2-0.1-1.5
	c0-0.6,0-1.2,0-1.8c0-0.3,0.1-1.1,0.2-1.5c0.1-0.4,0.2-1.1,0.3-1.4v-0.1c0-0.2,0.3-0.9,0.3-1.1c0,0,0,0,0-0.1
	c-0.1-0.3-0.1-0.5-0.1-0.8c0-0.1,0-0.1,0-0.2V45c0-0.1,0-0.4,0-0.5c0-0.1,0-0.1,0-0.2c-0.1-0.2-0.1-0.4-0.1-0.6c0-0.1,0-0.1-0.1-0.2
	c-0.3-0.3-0.5-0.7-0.4-1.2c0-0.1,0-0.2,0-0.3c0-0.1,0-0.1,0-0.2c0-0.1,0.1-0.2,0.1-0.4c0-0.1,0-0.1,0-0.1c0-0.2,0-0.4-0.1-0.6
	c-0.1-0.4-0.2-0.8,0-1c0.1-0.1,0.2-0.1,0.3-0.1c-0.1-0.2-0.1-0.4,0-0.6c0.1-0.2,0.2-0.3,0.4-0.4c0,0,0,0,0-0.3v-0.1
	c0-0.3-0.1-0.6-0.2-0.8c-0.1-0.2-0.2-0.5-0.3-0.7c-0.1-0.3-0.1-0.6-0.1-0.8c0-0.2,0.1-0.3,0.2-0.4c0,0,0,0,0-0.1c0-0.1,0-0.2,0-0.2
	c-0.2-0.1-0.7-0.2-0.8-0.6c-0.1-0.3,0-0.6,0.1-0.9C3,33.1,3,32.6,3,32.2c0-0.1,0-0.2-0.1-0.3l0,0c-0.2-0.3-0.2-0.6-0.1-1v-0.1
	C2.9,30.7,3,30.5,3,30.4l0.1-0.2c0.1-0.1,0.1-0.1,0.1-0.2l0,0C3.1,30,3,29.8,3,29.7c0-0.3,0-0.5,0.1-0.8v0c0-0.2,0.2-1.9,0.2-2.1
	c0-0.2,0-0.5,0-1c0-0.7,0-1.5,0-1.7c0-0.2,0-0.5-0.1-0.9C3,22.3,3,21,2.9,20.9C2.9,20.4,2.9,20.2,3,20c0.1-0.1,0.2-0.2,0.3-0.3
	c0-0.1,0-0.1,0-0.2c-0.1-0.3-0.3-2.4-0.3-2.5c0-0.3-0.2-1.9-0.2-2.1c0-0.2-0.1-1.5-0.1-1.7c0-0.3,0.1-0.5,0.4-0.6
	c0.1,0,0.2-0.1,0.3-0.1c0-0.1,0-0.3,0.1-0.4c0.1-0.1,0.3-0.5,0.3-0.5c0-0.1,0-0.3,0.1-0.4l0,0c-0.1-0.4-0.3-1.4-0.4-1.6
	C3.2,9.4,3.1,9,3,8.6S2.8,7.8,2.7,7.7C2.6,7.4,2.5,7,2.5,6.5C2.6,6.3,2.8,6.1,3,6h0.1c0-0.3,0.1-0.6,0.3-0.9V5
	c0.1-0.1,0.2-0.2,0.3-0.4c0-0.3,0-0.5,0.1-0.8c0-0.3,0.1-0.5,0.3-0.7C4.2,3,4.4,2.9,4.5,2.8C4.6,2.6,4.8,2.6,5,2.6
	c0.1-0.1,0.3-0.1,0.5-0.1c0.1-0.1,0.3-0.2,0.5-0.2h0c0.2,0,0.4,0,0.7,0l0.2,0.2L7,2.7l0.2,0.1l0.2,0.1L8,2.9L8.4,3c0,0,0-0.1,0-0.1
	c0-0.1,0-0.1,0.1-0.2V2.6l0,0c0-0.2,0-0.4,0-0.5c0.1-0.3,0.3-0.4,0.5-0.4c0.2,0,0.4,0,0.6,0h0.1h0.1H10c0.2,0,0.3,0,0.5,0.1l0.3,0.1
	C10.9,1.9,11,2,11.1,2l0,0c0.1,0.1,0.2,0.1,0.3,0.1l1,0.2L13,2.5h0.3c0.2,0,0.3,0,0.5,0c0.1,0,0.3,0,0.4,0c0.2-0.1,0.5-0.1,0.8-0.1
	h0.1h0.4h0.1h0.5c0.2,0,0.3,0,0.5,0c0.2,0,0.4-0.1,0.6-0.1c0.2,0,0.4,0,0.6,0.1H18l0.3,0.1c0.3,0.1,0.6,0.2,0.8,0.3h0.1
	c0.2,0.1,0.4,0.2,0.6,0.4h0.1c0.3-0.1,0.6-0.1,1-0.1c0.2,0,0.4,0,0.5,0c0.2,0,0.3,0.1,0.5,0.1l0.1,0l0,0c0.2,0,0.4,0.1,0.5,0.3
	c0,0.1,0,0.2,0,0.3c0,0.1,0,0.1-0.1,0.2l0,0c0.1,0,0.1,0.1,0.2,0.1c0.1,0.1,0.1,0.2,0,0.3l0,0c0,0.1,0,0.2,0,0.3l0,0.1
	c0.1,0.1,0.1,0.2,0.1,0.3c0,0.1,0,0.1,0,0.2c0,0.1,0,0.1,0,0.2c0,0.2,0,0.4-0.1,0.5c0,0,0,0.1-0.1,0.1c0.2,0.4,0.2,0.8,0.1,1.2
	c-0.1,0.1-0.1,0.3-0.2,0.4l0,0c0,0.2,0,0.3,0,0.5c0.1,0.1,0.2,0.2,0.3,0.4c0,0.2,0,0.3,0,0.5c0,0.1,0,0.1,0,0.2l0,0
	c0,0.3,0,0.5,0,0.8c0,0,0,0,0,0.1c0,0.1,0,0.1,0,0.2c-0.1,0.2-0.1,0.3-0.1,0.5c0,0.2,0,0.5-0.1,0.7c0,0.2,0,0.4,0,0.7v0.1
	c-0.1,0.3-0.2,0.6-0.3,0.9l-0.1,0.1c-0.2,0.3-0.3,0.6-0.2,1c0,0.1,0.1,0.2,0.2,0.4c0.4,0.3,0.8,0.7,1.1,1.2c0.2,0.4,0.4,0.8,0.6,1.2
	c0.1,0.2,0.1,0.4,0.1,0.6c0,0.1-0.1,0.4-0.1,0.5c0,0.2-0.2,0.4-0.3,0.5c-0.1,0-0.1,0-0.1,0.2v0.1c-0.1,0.3-0.1,0.5-0.3,0.8
	c-0.1,0.1-0.1,0.2-0.1,0.3c0,0,0,0.1,0,0.1c-0.1,0.2-0.2,0.4-0.4,0.5c-0.1,0.1-0.2,0.2-0.3,0.3h0l-0.2,0.2c-0.1,0.1-0.3,0.3-0.3,0.3
	c-0.1,0.1-0.2,0.2-0.3,0.3l-0.2,0.2l0,0c-0.1,0.1-0.2,0.1-0.2,0.2c0,0,0,0.1,0,0.1l0,0c0,0.2,0.1,0.4,0.1,0.5c0,0.2,0,0.4,0,0.5
	c0,0.2,0.1,0.3,0.2,0.5l0.1,0.2c0.1,0.2,0.2,0.4,0.2,0.5v0.1c0,0.1,0.1,0.3,0.1,0.4v0.1c0,0.1,0,0.2,0,0.3c0.1,0.2,0.2,0.4,0.2,0.6
	v0.1c0.1,0.4,0.2,0.7,0.2,0.8c0,0.1,0,0.2,0,0.3c0,0.1,0,0.1,0,0.2c0,0.1,0,0.1,0,0.2c0,0.1,0.1,0.4,0.1,0.4l0,0
	c0.1,0.3,0.2,0.5,0.2,0.8c0,0.2,0.1,0.5,0.1,0.7c0,0.1,0,0.1,0,0.2c0,0.3,0,0.6-0.1,0.9c0,0.1-0.2,0.2-0.2,0.3c-0.1,0.1,0,0.2,0,0.2
	c0,0,0,0.1,0.1,0.1c0.1,0.1,0.1,0.3,0,0.5c0,0.1,0,0.2,0,0.4c0,0,0,0.1,0,0.1c0,0.1,0,0.2-0.1,0.3c0,0,0,0.1,0,0.1l0,0
	c0.1,0.2,0.2,0.4,0.1,0.6v0.1c0,0,0,0.1,0,0.1c0,0.1,0,0.2,0.1,0.3c0.1,0.2,0.2,0.4,0.1,0.7c0,0.1,0,0.2,0,0.3c0,0.1,0,0.1,0.1,0.2
	c0.1,0.2,0.1,0.5,0,0.8l0,0.2c0,0.1-0.1,0.3-0.2,0.3c-0.1,0.1-0.2,0.2-0.3,0.3c0,0.3-0.2,0.4-0.3,0.4c-0.1,0-0.2,0-0.2,0.1
	c0,0.1,0,0.2,0,0.3c0,0.1,0,0.2,0,0.3c0,0.1,0,0.1-0.1,0.2l0,0c0.2,0.3,0.3,0.5,0.4,0.8v0.2c0,0.1,0,0.3,0.1,0.4
	C22,38.7,22,38.9,22,39c0.3,0.2,0.5,0.5,0.6,0.8c0.2,0.5,0.2,1,0.3,1.5v0.1c0,0,0,0.1,0,0.1c0.1,0.1,0.1,0.2,0.1,0.3l0,0
	c0,0.2,0,0.5,0,0.7c0,0.1,0,0.2,0,0.3c0,0.1,0,0.1,0,0.2c0,0.2-0.1,0.5-0.1,0.7c0,0.2-0.2,0.5-0.3,0.6l0,0l-0.1,0.1
	c-0.1,0.1-0.1,0.2-0.2,0.3c0,0.2,0,0.5,0,0.8c0,0.2-0.1,0.3-0.1,0.5c-0.1,0.3-0.2,0.6-0.4,0.9c0,0.1,0,0.3,0.1,0.4
	c0,0.1,0,0.2,0,0.3s0,0.1,0,0.1c0.1,0.2,0.1,0.4,0.2,0.6c0,0.1,0.1,0.3,0.1,0.4c0,0,0.1,0.1,0.1,0.7v0.1c0,0.1,0,0.3,0,0.4
	c0,0,0,0.1,0,0.1c0,0,0,0,0,0.1c0,0.1-0.1,0.2-0.1,0.3v0.1l0.2,0.2c0.2,0.1,0.2,0.2,0.3,0.3l0,0l0,0c0.2,0.2,0.3,0.4,0.3,0.6
	c0.1,0.3,0,0.6-0.1,0.9c-0.1,0.1-0.1,0.3-0.1,0.4v0.1c0,0,0,0.1,0,0.1v0.1c0,0.1-0.1,0.2-0.1,0.2c0,0.2,0,0.4-0.1,0.6l0,0
	c0,0.1,0,0.1,0,0.2c0,0.1,0,0.1,0,0.2c0,0.1,0,0.2,0,0.3c0,0.1,0,0.3,0,0.4c0,0.1,0,0.1,0,0.2c0,0,0,0.1,0,0.1c0,0,0,0.1,0,0.1
	c0,0.2,0,0.3,0,0.5c0,0.1,0,0.2,0,0.3c0,0.2,0,0.4,0,0.5v0.1c0,0.1,0,0.2,0,0.3c0,0,0,0,0,0.1c0,0.1,0,0.3-0.1,0.4
	c0,0.2-0.1,0.3-0.2,0.4c-0.1,0.1-0.2,0.1-0.2,0.2l-0.4,0.3c-0.5,0.2-1.1,0.3-1.6,0.3h0c-0.6,0.1-1.2-0.1-1.7-0.4c0,0-0.1,0-0.1,0
	c-0.2,0-0.3,0.1-0.5,0.2l0,0l0,0l-0.7,0.2c0,0-0.1,0-0.1,0.1c-0.4,0.2-0.8,0.3-1.3,0.3c-0.7,0-1.3,0.1-2,0.4
	c-0.7,0.2-1.5,0.3-2.3,0.3L11.3,60.3z M7.8,58.6c0.3,0.4,0.7,0.7,1.1,0.9c0.7,0.2,1.4,0.3,2.1,0.3h0.4c0.7,0,1.4-0.1,2.1-0.3
	c0.7-0.2,1.4-0.4,2.2-0.4c0.4,0,0.7-0.1,1-0.3c0.1,0,0.2-0.1,0.3-0.1l0.6-0.2c0.2-0.1,0.5-0.2,0.7-0.3c0.1,0,0.3,0,0.4,0.1
	c0.3,0.2,0.5,0.3,1.3,0.3h0.1c0.5,0,0.9,0,1.4-0.2l0.3-0.3l0.3-0.2c0,0,0-0.1,0-0.1s0-0.1,0-0.2c0-0.1,0-0.2,0-0.3c0,0,0-0.1,0-0.1
	c0-0.1,0-0.1,0-0.2c0-0.1,0-0.3,0-0.4c0-0.1,0-0.3,0-0.4c0-0.1,0-0.3,0-0.4c0-0.1,0-0.1,0-0.1v-0.1c0-0.1,0-0.2,0-0.3
	c0-0.1,0-0.2-0.1-0.3l0-0.1l0.1-0.1c0,0,0-0.1,0-0.1c0,0,0-0.1,0-0.1v-0.1l0,0L22,54.6l0.1-0.2c0-0.2,0-0.3,0-0.5v-0.1l0.1-0.1
	c0,0,0-0.1,0.1-0.1c0-0.1,0-0.2,0.1-0.2c0,0,0-0.1,0-0.1c0,0,0,0,0-0.1c0-0.2,0.1-0.3,0.2-0.5c0.1-0.3,0.1-0.7-0.1-1
	c-0.1-0.1-0.2-0.1-0.2-0.2l-0.1-0.1l-0.3-0.3L21.7,51v-0.5l0.2-0.1l0,0c0,0,0-0.1,0-0.1v-0.1c0,0,0-0.2,0-0.3v-0.1
	c0-0.2,0-0.3,0-0.5c-0.1-0.2-0.1-0.4-0.2-0.6c0-0.2-0.1-0.3-0.1-0.5c0-0.1,0-0.2,0-0.2c0-0.1,0-0.2,0-0.2c0-0.2-0.1-0.4-0.1-0.6
	v-0.1l0.1-0.1c0.2-0.2,0.3-0.4,0.4-0.6c0-0.2,0-0.2,0.1-0.5c0-0.2,0-0.4,0-0.6v-0.1c0.1-0.2,0.1-0.3,0.3-0.5l0.1-0.1
	c0,0,0-0.1,0.1-0.1c0.1-0.1,0.2-0.3,0.2-0.4c0-0.2,0.1-0.4,0.1-0.6c0,0,0-0.1,0-0.1c0-0.1,0-0.3,0-0.4c0-0.2,0-0.3,0-0.5l0,0l0,0
	c0,0-0.1-0.1-0.1-0.1c0-0.1,0-0.2,0-0.3c0-0.5-0.1-0.9-0.2-1.3c-0.1-0.2-0.2-0.4-0.3-0.5c-0.2,0-0.4-0.2-0.3-0.5c0,0,0,0,0,0v-0.1
	c-0.1-0.1-0.1-0.2-0.1-0.3c0-0.1,0-0.2-0.1-0.3v-0.2c-0.1-0.2-0.2-0.5-0.4-0.7c-0.1-0.1-0.1-0.3,0-0.4c0,0,0-0.1,0-0.1l0,0
	c0,0,0-0.1,0-0.1c-0.1-0.1-0.1-0.3,0-0.4c0,0,0,0,0-0.1c0-0.3,0.3-0.5,0.5-0.5l0,0c0,0,0-0.1,0-0.1c0-0.2,0.3-0.3,0.3-0.3
	c0,0,0.1,0,0.1-0.1c0-0.1,0.1-0.1,0.1-0.2l0-0.2c0-0.1,0.1-0.2,0.1-0.3c-0.1-0.1-0.1-0.2-0.1-0.3c0-0.1,0-0.3,0-0.4
	c0-0.3,0-0.4,0-0.4l0,0c-0.1-0.1-0.1-0.3-0.1-0.4c0-0.1,0-0.2,0-0.4c0-0.1,0-0.2-0.1-0.2c0,0,0,0,0-0.1c-0.1-0.2-0.1-0.4,0.1-0.6
	c0,0,0-0.1,0-0.1c0-0.1,0-0.1,0-0.1l0,0c0,0,0-0.1,0-0.1c0-0.1,0-0.2,0-0.3c-0.1-0.1-0.1-0.2-0.1-0.3L22,31.2v-0.1l0.1-0.1l0.3-0.3
	c0.1-0.2,0.1-0.3,0.1-0.5c0,0,0-0.1,0-0.1c-0.1-0.3-0.1-0.5-0.2-0.8c0-0.2-0.1-0.4-0.2-0.6l0,0c0-0.2-0.1-0.3-0.1-0.5
	c0-0.1,0-0.1,0-0.2c0-0.1,0-0.2,0-0.3c0-0.1,0-0.2,0-0.3c0-0.1-0.2-0.5-0.2-0.7v-0.1c-0.1-0.2-0.2-0.4-0.3-0.6l-0.1-0.2l0.1-0.1
	c0,0,0-0.1,0-0.1v-0.1c0,0,0-0.2-0.1-0.3v-0.1c0-0.1-0.1-0.3-0.2-0.5c0-0.1-0.1-0.2-0.1-0.2C21,24.2,21,24,20.9,23.8
	c0-0.2,0-0.4,0-0.6c0-0.1,0-0.3-0.1-0.4c0,0,0,0,0-0.1l0,0c-0.1,0-0.1-0.1-0.1-0.1c0,0,0-0.1,0-0.1c0-0.1,0-0.2,0-0.3
	c0.1-0.1,0.2-0.2,0.4-0.1l0.1-0.1l0,0l0.2-0.2c0.1-0.1,0.1-0.1,0.2-0.2c0,0,0.1-0.1,0.4-0.4l0.2-0.1l0,0c0.1-0.1,0.2-0.2,0.4-0.3
	c0.1-0.1,0.2-0.2,0.2-0.3c0-0.2,0.1-0.3,0.2-0.4c0.1-0.2,0.2-0.4,0.2-0.6c0-0.2,0.1-0.5,0.3-0.6c0.1,0,0.1-0.1,0.1-0.1
	s0-0.4,0.1-0.4c0-0.1,0-0.3,0-0.4c-0.1-0.4-0.3-0.8-0.5-1.1c-0.3-0.4-0.6-0.8-1-1.1c-0.2-0.2-0.3-0.4-0.3-0.7
	c-0.1-0.5,0-0.9,0.3-1.3l0-0.1c0.1-0.2,0.2-0.5,0.3-0.8v-0.1c0-0.2,0-0.4,0-0.5v-0.1c0-0.2,0.1-0.4,0.1-0.6c0-0.2,0-0.4,0.1-0.6l0,0
	c0-0.1,0-0.2,0-0.3c0,0,0-0.1,0-0.5V9.6l0,0c0,0,0-0.1,0-0.1c0-0.1,0-0.2,0.1-0.3c0,0,0-0.1,0-0.1c0-0.1-0.1-0.1-0.2-0.2
	c-0.2-0.1-0.2-0.3-0.1-0.5c-0.1-0.1-0.2-0.2-0.3-0.3C22,8,22,7.9,22,7.8c0-0.1,0.1-0.2,0.2-0.4c0.1-0.3,0-0.7-0.1-1L22,6.3l0.1-0.1
	l0,0c0,0,0.1-0.1,0.1-0.2c0.1-0.1,0.1-0.2,0.1-0.3c0,0,0,0,0-0.1c0,0,0-0.1,0-0.1l-0.4-0.3l0.2-0.1c0-0.1,0-0.2,0-0.2l0,0
	c0-0.1,0-0.1,0-0.2c-0.1,0-0.2-0.1-0.2-0.2c0-0.1,0-0.3,0-0.4c0,0,0-0.1,0-0.1h-0.1h0l-0.2-0.1l-0.4-0.1c-0.1,0-0.3,0-0.4,0
	c-0.3,0-0.5,0-0.8,0.1c-0.2,0-0.3,0-0.5,0h-0.1l-0.1-0.1c-0.1-0.1-0.2-0.2-0.4-0.3c-0.1,0-0.2-0.1-0.3-0.1c-0.2-0.1-0.4-0.2-0.6-0.2
	l-0.3-0.1l-0.2,0c-0.1,0-0.3,0-0.4,0c-0.2,0-0.3,0-0.5,0.1c-0.2,0-0.4,0-0.6,0h-0.4h-0.1h-0.4H15c-0.2,0-0.4,0-0.5,0.1
	c-0.2,0.1-0.5,0.1-0.7,0c-0.2,0-0.3,0-0.5,0h-0.4l0,0c0,0-0.3-0.1-0.6-0.2l-0.9-0.2c-0.2,0-0.3-0.1-0.5-0.2l0,0l-0.4-0.4
	c-0.1,0-0.2-0.1-0.4-0.1c-0.1,0-0.3,0-0.4,0c-0.1,0-0.2,0-0.4,0H9l0,0c0,0.1,0,0.1,0,0.2c0,0,0,0.1,0,0.1c0,0.1,0,0.2,0,0.3v0.1
	c0,0.1-0.1,0.3-0.1,0.4L8.7,3.5H8.5L7.9,3.4L7.2,3.3H7.1L6.9,3.2L6.8,3.2L6.5,3L6.3,2.8C6.2,2.8,6,2.7,5.8,2.7l0,0
	c-0.1,0-0.1,0-0.2,0.1L5.6,2.9H5.3c-0.1,0-0.2,0-0.2,0.1H5H4.9v0.2H4.7c0,0-0.1,0.1-0.1,0.1v0.1H4.5C4.4,3.5,4.4,3.6,4.4,3.8v0.1
	l0,0C4.3,4.1,4.2,4.3,4.2,4.5v0.1L4.1,4.8C4,4.8,4,5,3.9,5.1v0.1C3.8,5.4,3.7,5.6,3.7,5.9c0,0.2-0.2,0.4-0.4,0.4H3.2
	c0,0-0.1,0.1-0.2,0.3c0,0.3,0.1,0.6,0.2,0.9c0,0.1,0.1,0.4,0.3,0.9c0.2,0.5,0.3,0.9,0.3,1c0.1,0.3,0.4,1.6,0.5,1.7V11l-0.1,0.3
	c0,0.1,0,0.1,0,0.2c0,0.1,0,0.2-0.1,0.3l-0.3,0.5c0,0.1,0,0.1,0,0.2v0.2l-0.1,0.1c-0.2,0.1-0.3,0.2-0.5,0.3l0,0v0
	c0,0,0.1,1.5,0.1,1.7c0,0.2,0.1,1.3,0.2,2.1c0.1,0.7,0.3,2.2,0.3,2.5c0.1,0.3,0,0.5-0.1,0.6c-0.1,0.1-0.2,0.2-0.3,0.3
	c0,0.1,0,0.3,0,0.4c0,0.2,0.1,1.1,0.2,2.3c0,0.4,0.1,0.8,0.1,0.9c0,0.1,0,0.8,0,1.7c0,0.5,0,0.9,0,1c0,0.3-0.1,2.1-0.2,2.3l0,0
	c-0.1,0.2-0.1,0.4-0.1,0.6l0.2,0.1c0.1,0,0.1,0.1,0.1,0.1c0.1,0.1,0.1,0.2,0,0.3V30c0,0.1-0.1,0.3-0.2,0.4c0,0.1-0.1,0.1-0.1,0.1
	c0,0-0.1,0.3-0.1,0.3v0.1c-0.1,0.1-0.1,0.3,0,0.4c0.1,0.1,0.2,0.2,0.2,0.6c0,0.5,0,1-0.2,1.5c-0.1,0.3-0.1,0.4-0.1,0.6
	c0.1,0.1,0.3,0.2,0.5,0.2c0.1,0,0.2,0.1,0.3,0.2c0.1,0.1,0.1,0.3,0,0.4v0.1c0,0.2-0.1,0.4-0.2,0.5c0,0.1-0.1,0.1-0.1,0.2
	c0,0.2,0,0.3,0,0.5c0.1,0.3,0.3,0.5,0.4,0.8c0.1,0.3,0.1,0.6,0.2,1V38c0.1,0.3,0,0.6-0.2,0.8c-0.1,0-0.1,0.1-0.2,0.2
	c0,0.1,0,0.3,0.1,0.4c0.1,0.1,0.1,0.3,0,0.4c-0.1,0.1-0.2,0.1-0.3,0.1h0c-0.1,0-0.1,0-0.1,0c0,0.2,0.1,0.3,0.1,0.5
	c0.1,0.3,0.2,0.6,0.1,1c0,0,0,0.1-0.1,0.2c0,0.1-0.1,0.2-0.1,0.2c0,0.1,0,0.1,0,0.2c0,0.1,0,0.2,0,0.2c0,0.3,0,0.6,0.2,0.8
	c0.2,0.1,0.3,0.4,0.3,0.6c0,0.1,0,0.3,0.1,0.4c0.1,0.1,0.1,0.3,0.1,0.4c0,0.1,0,0.3,0,0.4l0,0c0.1,0.1,0.1,0.3,0.1,0.4
	c0,0.2,0,0.3,0,0.5c0.1,0.2,0.1,0.3,0,0.5c-0.1,0.2-0.3,0.9-0.3,1v0.1c-0.1,0.3-0.3,1-0.3,1.4S3.6,49.8,3.5,50s0,1.3,0,1.6
	s0.1,1.3,0.1,1.5c0,0.4,0.2,0.8,0.4,1c0.3,0.2,0.4,0.6,0.3,1v0.1c0,0.2-0.1,0.4-0.2,0.6C4.1,56,4,56.1,4,56.3c0,0.2,0,0.5,0,0.7
	c0,0,0,0.1,0,0.1c0,0.1,0,0.2,0.3,0.4c0.3,0.2,0.6,0.3,1,0.4c0.4,0,0.8,0,1.2-0.1h0.1l0.1,0.1c0.1,0,0.1,0,0.2,0h0.1L6.9,58l0.1,0.1
	c0.2,0.1,0.4,0.1,0.6,0.1h0.2v0.3L7.8,58.6z"/>
<path class="st0" d="M5.5,2.4C5.1,2.3,5.2,2.8,5.3,2.9c0.1,0.3,0.2,0.5,0.5,0.6c0.4,0.1,1.2,0.3,1,1.1c-0.1,0.5-0.1,1,0,1.6
	c-0.1,0,0.5,3,1.2,3.3c0.3,0.3,0.6,0.6,1,0.8C8.8,10,8.6,9.6,8.2,9.3C7.6,9,7,6.2,7.1,6.2c0-0.5,0-1,0.1-1.5c0.3-1-1.1-1.6-1.2-1.5
	C5.8,2.9,5.1,2.5,5.5,2.4z"/>
<path class="st0" d="M4.8,2.5c-0.2,0.5,0.1,1,0.6,1.3c1.2,0.1,0.5,3.6,0.9,3.6C6.4,7.3,7,10.7,7.9,11c0.4,0.3,0.7,0.7,0.8,1.2
	c0-0.5-0.3-1-0.7-1.3c-0.8-0.2-1.4-3.6-1.6-3.6c-0.3,0.2,0.4-3.5-1-3.7C5.1,3.2,4.8,3,4.8,2.5z"/>
<path class="st0" d="M4.3,2.6C4.3,2.9,4.3,3.1,4.4,3.4c0.2,0.4,1.4,1.1,1.2,1.3c0.1-0.1,0,1.5,0.2,1.8c0,0.2,0.1,0.5,0.3,0.6
	c0-0.2,0-0.5,0-0.7C6,6.1,6,4.6,5.9,4.6c0.2-0.2-1.1-1.2-1.2-1.3C4.6,3,4.4,2.9,4.3,2.6z"/>
<path class="st0" d="M4.1,2.8C3.9,3.4,4.2,3.9,4.7,4.2c0.5,0,0.6,0.9,0.6,2c0.2,0.6,0.3,1.2,0.6,1.7c0-0.1,1,3.4,1.8,3.7
	C8,12,8.3,12.4,8.6,12.8c-0.1-0.5-0.3-1-0.6-1.4c-0.8-0.3-1.7-3.6-1.8-3.6C5.9,7.3,5.8,6.7,5.6,6.1c-0.1-0.4,0-1-0.1-1.4
	C5.4,4.4,5.2,4.1,4.9,3.9C4.4,3.7,4.1,3.3,4.1,2.8z"/>
<path class="st0" d="M3.9,3.2c0,0.6,0.2,1.1,0.6,1.5C4.9,5,4.6,6,4.9,7.1C5.1,8.2,5.5,8.9,5.5,9c0,0,1.3,3.6,2.3,3.8
	c0.6,0.4,0.6,0.8,0.6,1.4c0.2-0.6,0-1.2-0.5-1.5c-1-0.2-2.2-3.7-2.2-3.7S5.4,8,5.1,7.1C4.8,6.2,5.2,4.9,4.7,4.6
	C4.3,4.2,4,3.7,3.9,3.2z"/>
<path class="st0" d="M3.7,3.7C3.6,4.3,4,4.7,4.2,5.2c0,0.8,0.1,1.6,0.3,2.4c0.3,1,0.6,1.8,0.6,1.8s1.4,3.4,2,3.8
	c0.4,0.5,1.1,0.6,1,1.1c0.3-0.5-0.4-0.8-0.8-1.3c-0.8-1.2-1.5-2.4-2-3.8c0,0-0.3-0.8-0.6-1.8C4.6,6.7,4.5,5.9,4.5,5.1
	C4.1,4.4,3.8,4.3,3.7,3.7z"/>
<path class="st0" d="M3.4,4.5c0.2,0.4,0.3,0.9,0.3,1.4c-0.2,0.7,1.1,3.9,1,3.9c0.1,0,0.8,3.3,1.6,3.7c0.5,0.4,1,0.3,1.1,0.8
	c0-0.6-0.6-0.7-1-1C6,13.1,5.1,9.6,5,9.7C5,9.8,3.8,6.6,4,5.9C4,5.3,3.8,4.9,3.4,4.5z"/>
<path class="st0" d="M3.3,4.9c0.3,0.4,0.2,0.7,0.2,1.3c-0.2,0.7,1,3.7,1,3.7c0.4,1.2,0.8,2.4,1.3,3.6c0.3,0.5,1,0.5,0.8,0.9
	c0.4-0.5-0.4-0.7-0.6-1C5.4,12.1,5,11,4.7,9.8c0,0-1.2-3-1-3.6C3.8,5.7,3.6,5.2,3.3,4.9z"/>
<path class="st0" d="M3.5,11.9c0.2,0.5,0,1,0.1,1.5c0.5,0.6,1,0.5,1.6,0.7c0.3,0.1,1,0.3,1.8,0.4c0.4,0.1,0.9,0.2,1.3,0.2
	s-0.2,0-0.7,0.3c-1.5,1.2-2.8,2.4-2.8,2.4s-0.3,0.3-0.8,0.8L3.2,19c-0.2,0.2-0.3,0.3-0.5,0.5S2.7,20.3,3,20.3c1.6,1,3.3,2.2,3.9,2.5
	c0.5,0.3,0.9,0.6,1.4,0.8c0.5-0.1,1-0.1,1.5-0.1c-0.5-0.2-0.9-0.2-1.4-0.2c-0.3-0.2-0.8-0.5-1.3-0.9S4.8,21,3.1,20
	c-0.4,0,0.1-0.4,0.4-0.7l0.8-0.8l0.8-0.8c0,0,1.3-1.2,2.8-2.3c0.2-0.1,0.4-0.2,0.6-0.3c0.1-0.1,0.3,0,0.4-0.4
	c-0.2-0.4-0.3-0.2-0.5-0.3c-0.5-0.1-0.9-0.1-1.3-0.2c-0.8-0.2-1.5-0.3-1.8-0.4c-0.5-0.1-0.9-0.2-1.4-0.4C3.7,13,3.8,12.3,3.5,11.9z"
	/>
<path class="st0" d="M8.3,23.3c-0.2,0.7-0.2,1.4-0.2,2.1c0,1-0.1,5.6-0.2,5.5c-0.1,0,0,0.3-0.1,0.7c0,0.2-0.1,0.5-0.1,0.7
	c0,0,0,0.1-0.1,0.1c0.5,0,0-0.1,0.1-0.1l-0.4-0.3c-1.1-0.7-2.2-1.5-2.6-1.7c-0.6-0.4-1.2-0.7-1.9-0.9c0.6,0.4,1,0.8,1.7,1.2l2.6,1.7
	l0.4,0.3c0.2,0-0.1,0.2,0.4,0C8,32.7,8,32.6,8.1,32.5c0.1-0.3,0.1-0.5,0.2-0.8C8.3,31.2,8.3,31,8.3,31s0.2-4.7,0.2-5.6
	C8.5,24.7,8.4,24,8.3,23.3z"/>
<path class="st0" d="M7.8,15.2c-0.1,0.3-0.2,0.7-0.2,1.1c0,0.5,0.1,2.9,0.1,2.9s0.1,2.5,0.2,3c0.1,0.4,0.1,0.7,0.3,1.1
	c0.1-0.4,0.1-0.7,0-1.1c-0.1-0.5-0.2-2.9-0.2-2.9c0,0-0.1-2.5-0.1-2.9S7.9,15.6,7.8,15.2z"/>
<path class="st0" d="M16,17.6c0.1-0.9,0.1-1.8-0.1-2.6c-0.5-1.1,0.5-7.1,0.3-7.1c0-0.3,0-0.6,0-1c-0.1-0.3,0-0.8-0.6-1
	c-0.5,0-0.9,0.2-1.2,0.6c-1.4,1.4-0.5,3.5-0.2,4c0.5,0.7,0.6,1.6,0.3,2.4c0.6-0.8,0.6-1.8,0-2.6c-0.3-0.4-1.1-2.3,0.2-3.5
	c0.6-0.7,1.1-0.5,1.1,0.2c0,0.3,0,0.6,0,1c0.2,0-0.9,5.9-0.3,7.1C15.7,16.1,15.8,16.7,16,17.6z"/>
<path class="st0" d="M18.9,21.2c0.3-1.4,0.5-2.8,0.5-4.3c0-0.9,0-1.8-0.1-2.6c0-0.7-0.2-1.3-0.5-1.9c-0.2-0.2-0.3-0.5-0.3-0.8
	c0.2-0.4-0.3-0.9-0.5-1c0,0.1,1.1-0.8,0.8-1.4c0.1-0.6,0-1.2-0.3-1.7c-0.3-0.5-0.7-0.9-1.1-1.2c0.1,0-0.8-0.2-1.2-0.8
	c-0.3-0.4-0.4-0.9-0.4-1.4c0.1-0.5,0.8-0.3,1.4,0c0.7,0.2,0.6,1,1.6,1.2c0.6-0.2,1.2-0.5,1.7-0.8c-0.4,0,0.1,1.2,0.2,1.3
	c0.1,0.3,0.1,0.7-0.1,1c0,0.2-0.1,0.3-0.3,0.4c-0.1,0.1,0-0.1-0.3,0.3v0.3c0,0.4-0.1,0.7-0.1,1c0.1,0.7-0.8,1.1-0.4,1.9
	c-0.3-0.8,0.7-1,0.7-1.8c0.1-0.3,0.1-0.7,0.2-1V7.6c-0.2,0.2,0.1,0,0.1,0C20.7,7.4,20.9,7.2,21,7c0.1-0.4,0.2-0.8,0.1-1.2
	c-0.1-0.2-0.2-0.5-0.3-0.7c-0.1-0.3,0.3-0.4-0.3-1c-0.7,0.2-1.1,0.7-1.7,0.8c-0.3,0-0.7-1-1.4-1.2c-0.5-0.3-1.6-0.7-1.9,0.3
	c-0.1,0.6,0.1,1.2,0.4,1.7c0.4,0.4,0.8,0.7,1.3,0.9c0.4,0.2,0.7,0.6,1,1c0.2,0.5,0.3,1,0.3,1.5c0,0.3,0,0.6-0.2,0.7
	c-0.2,0.2-0.8,0.2-0.5,1c1,1.8,1.4,3.9,1.3,6C19,18.6,19,19.7,18.9,21.2z"/>
<path class="st0" d="M19.9,10.3c0.2,0.2,0.3,0.3,0.6,0.4c0.4,0.2,1.1,1.4,0.8,1.5c0.2,0.2-0.8,1.2-1.3,1c-0.3,0-0.5,0-0.8,0.1
	c0.2,0.2,0.5,0.3,0.7,0.3c0.4,0,0.9-0.1,1.2-0.4c0.2-0.2,0.4-0.5,0.5-0.8c0.1-0.3,0.1-0.7-0.1-1c-0.2-0.4-0.5-0.7-0.8-0.9
	C20.5,10.3,20.2,10.3,19.9,10.3z"/>
<path class="st0" d="M19.5,16.1c0.3,0.1,0.6,0.2,0.8,0.3c0.4,0.1,0.8,0.3,1.1,0.5c0.3,0.3,0.2,0.9,0.2,0.9c0,0,0,0.5-0.3,0.8
	c-0.3,0.3-0.7,0.4-1.1,0.5c-0.3,0-0.6,0.1-0.9,0.3c0.3,0.1,0.6,0.2,1,0.1c0.5-0.1,1-0.3,1.4-0.6c0.3-0.3,0.4-0.7,0.4-1.1
	c0.1-0.4-0.1-0.8-0.3-1.1c-0.4-0.3-0.8-0.6-1.3-0.7C20.1,15.9,19.8,16,19.5,16.1z"/>
<path class="st0" d="M20.4,9.4c0,0.1,0.1,0.2,0.2,0.2c0.2,0.1,0.4,0.2,0.6,0.4c0,0,0.4,0.4,0.4,0.5c0,0.1,0.1,0.2,0.2,0.2
	c0.1-0.1,0.1-0.2,0.1-0.3c0-0.2-0.5-0.6-0.5-0.6c-0.2-0.2-0.4-0.3-0.6-0.4C20.6,9.4,20.5,9.4,20.4,9.4z"/>
<path class="st0" d="M20.6,8.9c0,0.1,0.1,0.2,0.1,0.2c0.2,0.1,0.3,0.1,0.5,0.2c0,0,0.4,0.2,0.3,0.3c0,0.1,0.1,0.1,0.2,0.1
	c0-0.1,0-0.2,0-0.2c0-0.2-0.4-0.4-0.4-0.4c-0.2-0.1-0.3-0.2-0.5-0.2C20.7,8.8,20.6,8.9,20.6,8.9z"/>
<path class="st0" d="M20.5,8.4c0.1,0.1,0.1,0.1,0.2,0.2c0.2,0.1,0.3,0.1,0.5,0.2c0.2,0.1,0.3,0.1,0.4,0.2C21.7,9,21.7,9,21.8,9
	c0.1-0.1,0.1-0.2,0-0.3c0,0,0,0,0,0c-0.2-0.1-0.3-0.2-0.5-0.3c-0.2-0.1-0.4-0.1-0.5-0.2C20.7,8.3,20.6,8.3,20.5,8.4z"/>
<path class="st0" d="M19.5,13.9c0,0.1,0.1,0.1,0.2,0.1c0.2,0,0.4,0,0.5-0.1c0.2,0,0.4-0.1,0.5-0.2c0.1,0,0.1-0.1,0.1-0.2
	c0-0.1-0.2-0.1-0.2,0c-0.2,0.1-0.3,0.1-0.5,0.2c-0.2,0-0.3,0.1-0.5,0.1C19.5,13.8,19.5,13.8,19.5,13.9z"/>
<path class="st0" d="M19.5,14.6c0.1,0.1,0.1,0.1,0.2,0.1s0.5-0.1,0.5-0.1c0.2,0,0.4-0.1,0.5-0.1c0.1,0,0.1-0.1,0.2-0.2
	c0-0.1-0.1-0.1-0.2-0.1c-0.2,0-0.3,0.1-0.5,0.1l-0.5,0.1C19.6,14.4,19.5,14.5,19.5,14.6z"/>
<path class="st0" d="M19.6,15.2l1,0.4c0.5,0.2,1,0.5,1.3,0.9c0.3,0.3,0.4,0.7,0.4,1.1c0,0.4-0.1,0.8-0.3,1.2
	c-0.3,0.4-0.8,0.7-1.3,0.9c-0.4,0.1-0.7,0.3-1,0.4c0.4,0,0.8,0,1.1-0.2c0.6-0.2,1.1-0.5,1.4-1c0.2-0.4,0.4-0.9,0.3-1.3
	c0-0.5-0.1-0.9-0.4-1.3c-0.4-0.4-0.9-0.8-1.4-1C20.4,15.2,20,15.2,19.6,15.2z"/>
<path class="st0" d="M19.5,20.6c0.1,0.1,0.3,0.1,0.4,0c0.2,0,1-0.2,1-0.2c0.3-0.1,0.7-0.2,1-0.3c0.1-0.1,0.2-0.2,0.3-0.3
	c-0.1,0-0.2,0-0.4,0.1c-0.3,0.1-0.6,0.2-0.9,0.3c0,0-0.8,0.2-1,0.2C19.7,20.4,19.6,20.5,19.5,20.6z"/>
<path class="st0" d="M19.7,21c0.1,0.1,0.1,0.1,0.2,0.1c0.2,0,0.3,0,0.5-0.1c0.2,0,0.3,0,0.5-0.1c0.1,0,0.1-0.1,0.1-0.2
	c0-0.1-0.1-0.1-0.2-0.1l-0.5,0.1l-0.5,0.1C19.7,20.9,19.7,20.9,19.7,21z"/>
<path class="st0" d="M7.5,7.2C8,7.1,8.9,7.3,8.8,7.6c0,0.6,0,1.2,0,1.9c-0.4,1.8-0.6,3.7-0.5,5.6c0.2,1.4,0.4,2.9,0.4,4.3
	c0,0,0,0.5,0.1,1.3c0.2,1,0.6,2,1.2,2.9c-0.1,1.9-0.7,4.7-0.4,5.5c0.1,1.4,0.8,2.6,0.4,3.4c0.7-0.8,0.2-2.1,0.2-3.4
	c-0.3-0.9,0.3-3.1,0.4-5.6c-0.8-1.2-1.3-2.6-1.2-4c0,0-0.1-2.1-0.4-4.4C8.8,13.3,9,11.4,9.3,9.6c0-0.6,0-1.3-0.1-1.9
	C8.8,6.8,8,7.1,7.5,7.2z"/>
<path class="st0" d="M10.3,2.8C10,3.2,9.9,3.6,10.1,4c0.1,0.2,0.3,0.4,0.4,0.6c0.1,0.3,0.1,0.3,0.1,0.3c0.3,0.8,0.4,0.3,0.6,0.5
	c0.2,0.2,0.7,0.2,0.9,0.3c0.2,0.1,0.4,0,0.5-0.1l1.2-0.7c0.6-0.2,1.4-1.3,0.9-1.6c-0.3-0.3-0.8-0.4-1.2-0.3c0.3,0.3,0.6,0.4,1,0.6
	c0.7,0.3-2.1,1.8-2,1.8c-0.1,0,0,0.2-0.2,0.1c-0.2-0.1-0.6-0.2-1-0.3c-0.1,0.1-0.6-0.4-0.4,0.2c0.2-0.4,0-0.5,0-0.7
	c-0.2-0.3-0.4-0.5-0.4-0.6C10.3,3.5,10.2,3.2,10.3,2.8z"/>
<path class="st0" d="M12.4,6c0.1,1.2,0.2,2.4,0.5,3.6c0.8,1.6,1.4,3.3,1.7,5.1c0.3,2.1,0.5,4.2,0.5,4.2s0.3,2,0.5,4.2
	c0.1,2.1-0.4,4.6-0.3,5.4c0.1,1.2,0.2,2.4,0.4,3.6c0.1-1.2,0.2-2.4,0.1-3.6c-0.2-0.8,0.3-3.1,0.3-5.4c-0.3-2.2-0.6-4.2-0.5-4.2
	c0,0-0.2-2-0.5-4.2c-0.4-1.8-1-3.5-1.8-5.2C13.1,8.2,12.8,7.1,12.4,6z"/>
<path class="st0" d="M9.6,9.2c0.2,0.1,0.4,0.2,0.6,0.2c0.3-0.1,1.5,0.7,1.4,0.7c0.1-0.1,0.8,1.2,0.4,1.3c-0.1,0.2-0.2,0.3-0.4,0.5
	c0.3,0.1,0.5,0,0.7-0.3c0.5-0.4-0.4-1.9-0.5-1.8c0.1-0.1-1.3-1-1.7-0.9C10,9,9.8,9,9.6,9.2z"/>
<path class="st0" d="M10.4,12.1c0.1-0.1,0-0.3-0.1-0.4c0,0,0,0,0,0c-0.3-0.1-0.5,0.3-0.5,0.4c0,0.2,0.1,0.5,0.3,0.6
	c0.3,0.1,0.6,0.1,0.9,0c0.4-0.2,0.6-0.6,0.6-1c-0.1-0.4-0.2-0.7-0.5-1c-0.4-0.4-0.9-0.5-1.4-0.3c-0.3,0.1-0.5,0.4-0.6,0.7
	c0.2-0.1,0.5-0.2,0.7-0.3c0.4-0.5,1.6,0.9,1.4,1c0,0.3-0.1,0.5-0.4,0.6c-0.5,0.2-0.7,0-0.6-0.2C10.3,11.9,10.2,11.9,10.4,12.1z"/>
<path class="st0" d="M9.6,11.6c-0.4-0.5-0.9,0.3-0.7,0.8c0,0.2,0.1,1.4,1.2,1.6c0.5,0.1,1.1,0,1.6-0.3c0.5-0.3,0.8-0.8,0.9-1.3
	l0-0.2c-0.4-0.6-0.4-0.1-0.4-0.2L12,12.3l-0.4,0.3c-0.2,0.2-0.4,0.3-0.6,0.4c-0.4,0.2-0.6,0.2-1-0.1c0,0.4,0.4,0.7,0.8,0.6
	c0.1,0,0.2-0.1,0.3-0.1c0.2-0.1,0.5-0.3,0.7-0.4l0.4-0.4l0.2-0.2c0,0.1,0.1-0.2-0.2-0.2v0.1c-0.1,0.4-0.4,0.8-0.7,1.1
	c-0.4,0.2-0.8,0.3-1.3,0.2c-0.7-0.1-0.8-1-0.9-1.3C9.3,11.9,9.2,11.5,9.6,11.6z"/>
<path class="st0" d="M12.1,14.1c-0.1,0.2-0.3,0.4-0.6,0.5c-0.4,0.4-2-0.3-2.3-0.1c-0.1,0.6,1.9,0.7,2.1,1.1c0.2,0.1,0.4,0.3,0.5,0.6
	c0.1-0.3-0.1-0.7-0.4-0.8c-0.7-0.3-1.3-0.6-2.1-0.7c-0.3,0,1.8,0.7,2.2,0.3C11.9,14.7,12.1,14.4,12.1,14.1z"/>
<path class="st0" d="M11.4,14.9c0.1,0.1,0.2,0.1,0.4,0.2c0.4-0.1,0.7-0.2,1-0.5c0,0.1,0.8-0.9,0.1-1c-0.1,0-0.3,0-0.4,0.1
	c0.1,0.1,0.2,0.1,0.3,0.1c0.3-0.1-0.2,0.6-0.2,0.6c-0.2,0.2-0.5,0.3-0.8,0.4C11.6,14.8,11.5,14.9,11.4,14.9z"/>
<path class="st0" d="M12,15c0.1,0.1,0.1,0.1,0.2,0.1c0.2,0,0.3,0,0.5-0.1c0,0,0.4-0.1,0.5-0.2c0.1-0.1,0.1-0.2,0-0.3
	c-0.1,0-0.1,0-0.2,0.1c0,0.1-0.4,0.2-0.4,0.2c-0.2,0-0.3,0-0.5,0.1C12.1,14.9,12,15,12,15z"/>
<path class="st0" d="M12.4,15.1c0.1,0.1,0.1,0.1,0.2,0.1c0.1,0,0.5,0.1,0.5,0.1c0.2,0,0.3,0.1,0.5,0.2c0.1,0,0.1,0,0.2,0
	c0.1-0.1,0-0.2-0.1-0.2c0,0,0,0,0,0c-0.2-0.1-0.4-0.1-0.5-0.2c-0.2,0-0.4-0.1-0.5-0.1C12.5,15,12.5,15.1,12.4,15.1z"/>
<path class="st0" d="M12.6,15.4c0.1,0.1,0.2,0.2,0.4,0.3c0.3,0.2,0.6,0.5,0.8,0.8c0.1,0,0.2,1,0,1c-0.1,0.1-0.2,0.2-0.2,0.4
	c0.2,0,0.3-0.1,0.5-0.2c0.3-0.2,0.2-1.4,0-1.3c-0.2-0.4-0.6-0.7-1-1C12.9,15.3,12.8,15.3,12.6,15.4z"/>
<path class="st0" d="M9.9,15.7c-0.2,0.1-0.4-0.1-0.3-0.2c0.1-0.1,0.3-0.3,0.6,0c0.1,0.2,0.2,0.4,0.2,0.6c-0.1,0.3-0.2,0.5-0.3,0.7
	c-0.1,0.4-0.1,0.7,0,1.1c0,0.2,0.1,0.5,0.3,0.6c0-0.2,0-0.5,0-0.7c-0.3-0.3,0.2-1.6,0.2-1.7c0-0.3-0.1-0.6-0.2-0.9
	c-0.3-0.5-1.1-0.3-1,0C9.3,15.9,9.8,15.9,9.9,15.7z"/>
<path class="st0" d="M11.1,15.6c-0.1,0.1-0.1,0.2-0.1,0.3c0.1,0.1-0.3,0.7-0.3,0.7c-0.2,0.3-0.3,0.5-0.3,0.8c0,0.1,0,0.2,0.1,0.3
	c0.1-0.1,0.2-0.2,0.2-0.3c0-0.1,0.3-0.8,0.3-0.8s0.4-0.6,0.3-0.8C11.2,15.8,11.2,15.7,11.1,15.6z"/>
<path class="st0" d="M11.5,19.7c-0.1-0.1-0.2-0.3-0.3-0.4c-0.3-0.1-0.6-1-0.5-1.1c-0.1,0,0.3-1,0.6-0.8c0.2,0,0.3-0.1,0.3,0.1
	c0.1-0.2-0.1-0.4-0.3-0.4c-0.5-0.2-1,1.1-0.8,1.1c-0.1,0,0.3,1.2,0.6,1.3C11.2,19.6,11.3,19.7,11.5,19.7z"/>
<path class="st0" d="M10.7,17.4c0.1,0,0.2-0.1,0.3-0.1c0.1-0.1,0.7-0.3,0.7-0.3c0-0.1,0.6,0.3,0.5,0.3s0,0.1-0.1,0.1
	c0,0.1,0.3,0.2,0.4-0.1c0.1-0.3-0.7-0.7-0.8-0.6c0-0.1-0.8,0.2-0.8,0.3C10.8,17.2,10.7,17.3,10.7,17.4z"/>
<path class="st0" d="M10.9,16.9c0.2-0.1,0.5-0.3,0.7-0.3c0.4-0.5,1.7,0.8,1.4,1c0,0.3-0.2,0.5-0.4,0.7c-0.4,0.3-0.8-0.2-0.6-0.2
	c0.2-0.3,0.2-0.1,0.2,0.2c0.2-0.1,0.2-0.2,0.2-0.4c0,0,0,0,0,0c-0.1-0.3-0.5-0.1-0.5,0c-0.5,0.2,0.3,1.2,0.9,0.6
	c0.3-0.2,0.5-0.5,0.5-0.9c0-0.4-0.2-0.7-0.5-0.9c-0.3-0.3-0.8-0.4-1.3-0.3C11.3,16.4,11,16.7,10.9,16.9z"/>
<path class="st0" d="M14.2,17.7c-0.1,0.1-0.3,0.1-0.4,0.1c0,0.1-0.5,0-0.7,0.4c-0.2,0.4-0.2,0.5-0.2,0.5c-0.2,0.6,1.2,0.2,1.2-0.1
	c0.1-0.1,0.1-0.3,0.1-0.5c-0.1,0.1-0.2,0.2-0.3,0.4c0.1,0.4-1.3,0.1-0.9,0.5c0.1,0,0.2-0.3,0.3-0.6c0.1-0.3,0.4-0.2,0.5-0.2
	C14,18,14.2,17.9,14.2,17.7z"/>
<path class="st0" d="M14.1,18.4c-0.1,0.1-0.2,0.2-0.3,0.3c-0.1,0.2-0.8,0.7-0.8,0.6c0,0.1-0.9,0-0.9-0.3c-0.1-0.1-0.1-0.2-0.2-0.3
	c-0.1,0.1-0.1,0.3,0,0.5c0.1,0.3,1.2,0.5,1.2,0.4c0.1,0.1,0.9-0.5,1-0.7C14.1,18.7,14.2,18.6,14.1,18.4z"/>
<path class="st0" d="M12.9,19.7c-0.2-0.1-0.4-0.1-0.6-0.1c-0.1,0-0.6-0.1-0.8-0.3c-0.1-0.2-0.1-0.5-0.1-0.7c0,0,0-0.1,0-0.2v-0.2
	c-0.5,0,0,0.1-0.1,0.2c0.3,0.2,0.1,0.7,0.1,0.8c0,0.4,0.4,0.4,0.6,0.3c-0.2-0.1-0.3-0.2-0.3-0.3c0-0.2,0.3-0.6-0.2-1
	c-0.2,0,0.1-0.3-0.4-0.1v0.2c0,0.1,0,0.2,0,0.2c0,0.3,0,0.6,0.1,0.8c0.2,0.3,0.6,0.5,1,0.5C12.5,19.9,12.7,19.8,12.9,19.7z"/>
<path class="st0" d="M13.7,16.6c0.1-0.1,0.1-0.1,0-0.2s-0.2-0.3-0.2-0.3l0,0l0,0c-0.4,0-0.1,0-0.2,0v0.1c0,0.1-0.1,0.2-0.1,0.2
	c0,0,0,0.1,0.1,0.1c0.1,0,0.1-0.1,0.1-0.1s0-0.1,0.1-0.1l0,0c-0.1,0,0.2,0-0.2,0l0,0l0,0c0,0,0.2,0.2,0.2,0.3S13.6,16.6,13.7,16.6z"
	/>
<path class="st0" d="M13,16.2c0.1-0.2,0-0.4-0.1-0.6c-0.4-0.3-0.9-0.5-1.4-0.6c-0.3,0.5,0.2,0.3,0.3,0.6c0.1,0.3,0.3,0.5,0.6,0.7
	c0.2,0.1,0.4,0.1,0.5,0.1c-0.2-0.1-0.2-0.2-0.4-0.3c-0.2,0.1-0.8-1.4-1-0.8c0.5,0.1,0.9,0.3,1.2,0.5C12.9,15.9,12.9,16,13,16.2z"/>
<path class="st0" d="M13.3,19.7c-0.1,0.2-0.4,0.4-0.6,0.5c-0.4,0.4-2-0.3-2.3-0.1c-0.1,0.6,1.9,0.7,2.1,1.1c0.3,0.2,0.4,0.3,0.5,0.6
	c0.1-0.3,0-0.7-0.3-0.8c-0.7-0.3-1.4-0.6-2.1-0.7c-0.3,0,1.9,0.7,2.2,0.3C13.1,20.3,13.3,20,13.3,19.7z"/>
<path class="st0" d="M12.6,20.6c0.1,0.1,0.3,0.1,0.4,0.1c0.4-0.1,0.7-0.2,1-0.5c0,0.1,0.8-0.9,0.1-1c-0.2,0-0.3,0-0.4,0.1
	c0.2,0.1,0.2,0.1,0.3,0.1c0.3-0.1-0.2,0.6-0.2,0.6c-0.2,0.2-0.5,0.3-0.8,0.4C12.9,20.5,12.8,20.5,12.6,20.6z"/>
<path class="st0" d="M13.2,20.7c0.1,0.1,0.1,0.1,0.2,0.1c0.2,0,0.3,0,0.5-0.1c0,0,0.4-0.1,0.5-0.2c0.1-0.1,0.1-0.2,0-0.3
	c-0.1,0-0.1,0-0.2,0.1c0,0.1-0.4,0.2-0.4,0.2c-0.2,0-0.3,0-0.5,0.1C13.3,20.5,13.3,20.7,13.2,20.7z"/>
<path class="st0" d="M13.6,20.8c0.1,0.1,0.1,0.1,0.2,0.1l0.5,0.1c0.2,0,0.3,0.1,0.5,0.2c0.1,0,0.1,0,0.2,0c0-0.1,0-0.2-0.1-0.2
	c0,0,0,0,0,0c-0.2-0.1-0.3-0.2-0.5-0.2c0,0-0.5-0.1-0.5-0.1C13.8,20.6,13.7,20.7,13.6,20.8z"/>
<path class="st0" d="M13.9,21c0.1,0.1,0.2,0.2,0.4,0.3c0.3,0.2,0.6,0.5,0.8,0.8c0.1,0,0.2,1,0,1c-0.1,0.1-0.2,0.2-0.2,0.4
	c0.2,0,0.3-0.1,0.5-0.2c0.3-0.2,0.2-1.4,0-1.3c-0.2-0.4-0.6-0.7-1-1C14.2,21,14,21,13.9,21z"/>
<path class="st0" d="M11.2,21.3c-0.2,0.1-0.4-0.1-0.3-0.2s0.3-0.3,0.6,0c0.1,0.2,0.2,0.4,0.2,0.7c0,0-0.1,0.3-0.3,0.7
	c-0.1,0.4-0.1,0.7,0,1.1c0,0.2,0.1,0.4,0.3,0.6c0-0.2,0-0.5,0-0.7c-0.3-0.3,0.2-1.6,0.2-1.7c0-0.3,0-0.6-0.2-0.9
	c-0.3-0.5-1.1-0.3-1,0c-0.1,0.2,0,0.4,0.1,0.5C10.9,21.5,11.1,21.5,11.2,21.3L11.2,21.3z"/>
<path class="st0" d="M12.3,21.2c-0.1,0.1-0.1,0.2-0.1,0.3c0.1,0.1-0.3,0.7-0.3,0.7c-0.2,0.3-0.3,0.5-0.3,0.8c0,0.1,0,0.2,0.1,0.3
	c0.1-0.1,0.1-0.2,0.2-0.3c0.1-0.3,0.2-0.5,0.3-0.8c0,0,0.4-0.6,0.4-0.8C12.5,21.4,12.4,21.3,12.3,21.2z"/>
<path class="st0" d="M12.8,25.3c-0.1-0.1-0.2-0.3-0.3-0.4c-0.3-0.3-0.5-0.7-0.5-1.1c-0.1,0,0.3-1,0.6-0.8c0.1,0,0.3-0.1,0.3,0.1
	c0.1-0.2-0.1-0.4-0.4-0.4c-0.5-0.2-1,1.1-0.8,1.1c-0.1,0,0.3,1.2,0.6,1.2C12.4,25.2,12.6,25.3,12.8,25.3z"/>
<path class="st0" d="M12,23c0.1,0,0.2-0.1,0.3-0.1c0.1-0.1,0.7-0.3,0.7-0.2c0-0.1,0.6,0.3,0.5,0.3s0,0.1-0.1,0.1
	c0,0.1,0.3,0.2,0.4-0.1c0.1-0.3-0.7-0.6-0.8-0.6c0,0.1-0.8,0.2-0.8,0.3C12,22.8,12,22.9,12,23z"/>
<path class="st0" d="M12.2,22.6c0.2-0.1,0.5-0.2,0.7-0.3c0.4-0.5,1.7,0.8,1.4,1c0,0.3-0.2,0.5-0.4,0.7c-0.4,0.3-0.8-0.2-0.6-0.2
	c0.2-0.3,0.2-0.1,0.2,0.2c0.2-0.1,0.2-0.2,0.2-0.4c-0.1-0.3-0.5-0.1-0.5,0c-0.5,0.2,0.3,1.2,0.9,0.7c0.3-0.2,0.5-0.5,0.5-0.9
	c0-0.4-0.2-0.7-0.5-1c-0.3-0.3-0.8-0.4-1.3-0.3C12.5,22.1,12.3,22.3,12.2,22.6z"/>
<path class="st0" d="M15.4,23.3c-0.1,0.1-0.3,0.1-0.4,0.1c0,0.1-0.5,0-0.7,0.4c-0.1,0.2-0.1,0.3-0.2,0.5c-0.2,0.6,1.2,0.2,1.2-0.1
	c0.1-0.1,0.1-0.3,0.1-0.5c-0.1,0.1-0.2,0.2-0.3,0.4c0.1,0.4-1.3,0.2-0.9,0.5c0.1,0,0.2-0.3,0.3-0.6c0.1-0.3,0.4-0.1,0.6-0.2
	C15.3,23.7,15.4,23.5,15.4,23.3z"/>
<path class="st0" d="M15.4,24.1c-0.1,0.1-0.2,0.2-0.3,0.3c-0.1,0.2-0.8,0.7-0.8,0.6c0,0.1-0.9-0.1-0.9-0.3c-0.1-0.1-0.1-0.2-0.2-0.3
	c-0.1,0.1-0.1,0.3,0,0.5c0.1,0.4,1.2,0.5,1.2,0.4c0.1,0.1,0.9-0.5,1-0.7C15.4,24.4,15.4,24.2,15.4,24.1z"/>
<path class="st0" d="M14.2,25.3c-0.2,0-0.4-0.1-0.6-0.1c-0.1,0-0.6-0.1-0.7-0.3c-0.1-0.2-0.1-0.5-0.1-0.7c0,0,0-0.1,0-0.2v-0.3
	c-0.5,0,0,0.2-0.1,0.2c0.3,0.2,0.1,0.7,0.1,0.8c0,0.4,0.4,0.4,0.6,0.3C13.1,25,13,24.9,13,24.7c0-0.2,0.3-0.6-0.1-1
	c-0.2,0,0.1-0.3-0.4-0.1v0.2c0,0.1,0,0.2,0,0.2c0,0.3,0,0.6,0.1,0.8c0.2,0.3,0.6,0.5,1,0.5C13.7,25.5,14,25.4,14.2,25.3z"/>
<path class="st0" d="M14.9,22.2c0.1-0.1,0.1-0.1,0.1-0.2s-0.2-0.3-0.2-0.3l0,0l0,0c-0.4,0-0.1,0-0.2,0v0.1c0,0.1-0.1,0.1-0.1,0.2
	c0,0.1,0,0.1,0.1,0.2c0.1,0,0.1-0.1,0.1-0.1c0,0,0-0.1,0-0.1l0,0c-0.1,0,0.2,0-0.2,0l0,0l0,0c0,0,0.2,0.2,0.2,0.2
	C14.7,22.3,14.8,22.2,14.9,22.2z"/>
<path class="st0" d="M14.3,21.8c0-0.2,0.1-0.4-0.1-0.6c-0.4-0.3-0.9-0.5-1.4-0.6c-0.3,0.5,0.2,0.3,0.3,0.6c0.1,0.3,0.3,0.5,0.6,0.7
	c0.2,0.1,0.4,0.1,0.5,0.1c-0.2-0.1-0.2-0.2-0.4-0.3c-0.2,0.1-0.8-1.4-1-0.8c0.4,0.1,0.9,0.3,1.2,0.5C14.1,21.5,14.1,21.6,14.3,21.8z
	"/>
<path class="st0" d="M14.1,25.6c-0.2,0.1-0.4,0.2-0.7,0.3c-0.5,0.3-1.5-1.1-1.9-0.9c-0.2,0.5,1.3,1.3,1.4,1.7
	c0.2,0.2,0.2,0.4,0.2,0.7c0.2-0.2,0.2-0.6,0.1-0.8c-0.1-0.4-1.6-1.6-1.4-1.5c-0.3-0.1,1.3,1.3,1.8,1C13.9,26,14,25.8,14.1,25.6z"/>
<path class="st0" d="M13.2,26.2c0.1,0.1,0.2,0.2,0.3,0.3c0.3,0.1,0.7,0,1-0.1c-0.1,0.1,1-0.5,0.5-0.9c-0.1-0.1-0.3-0.1-0.4,0
	c0.1,0.1,0.1,0.2,0.2,0.2c0.2,0-0.4,0.5-0.4,0.5s-0.7,0.2-0.8,0.1C13.5,26.2,13.4,26.1,13.2,26.2z"/>
<path class="st0" d="M13.7,26.4c0,0.1,0,0.1,0.1,0.2c0.2,0,0.3,0.1,0.5,0.1c0,0,0.4,0.1,0.5-0.1c0.1,0,0.1-0.1,0.1-0.2
	c-0.1,0-0.2,0-0.2,0s-0.4,0-0.3,0c-0.1,0-0.3-0.1-0.4-0.1C13.8,26.4,13.8,26.4,13.7,26.4z"/>
<path class="st0" d="M14,26.7c0,0.1,0,0.2,0.1,0.2c0.1,0,0.4,0.3,0.4,0.3c0,0,0.3,0.3,0.3,0.3c0,0,0.1,0,0.2,0.1
	c0.1-0.1,0.1-0.2,0-0.2c0-0.1-0.4-0.4-0.4-0.4c-0.1-0.1-0.3-0.2-0.4-0.3C14.1,26.6,14.1,26.6,14,26.7z"/>
<path class="st0" d="M14.1,27c0,0.1,0.1,0.3,0.2,0.4c0.2,0.3,0.3,0.7,0.3,1c0.1,0-0.2,0.9-0.4,1c-0.1,0.1-0.2,0.1-0.3,0.3
	c0.2,0,0.3,0,0.5-0.1c0.3-0.1,0.6-1.1,0.5-1.1c0-0.4-0.2-0.8-0.4-1.2C14.4,27.1,14.3,27,14.1,27z"/>
<path class="st0" d="M11.8,26.3c-0.2,0-0.3-0.2-0.1-0.3c0.1-0.1,0.4-0.1,0.4,0.3c0,0.2,0,0.5-0.1,0.7c0-0.1-1,1.2-0.9,1.6
	C11,28.8,11,29,11,29.3c0.1-0.2,0.2-0.4,0.2-0.6c-0.1-0.4,0.7-1.5,0.8-1.5c0.2-0.2,0.2-0.5,0.2-0.8c0-0.6-0.8-0.8-0.9-0.5
	C11.1,26.2,11.6,26.6,11.8,26.3z"/>
<path class="st0" d="M12.7,26.6c-0.1,0.1-0.2,0.1-0.2,0.3c0,0.1-0.5,0.6-0.5,0.6c0,0-0.6,0.5-0.6,0.7c-0.1,0.1-0.1,0.2,0,0.3
	c0.1,0,0.2-0.1,0.3-0.2c0-0.2,0.5-0.6,0.5-0.6s0.6-0.5,0.6-0.7C12.8,26.8,12.8,26.7,12.7,26.6z"/>
<path class="st0" d="M11.5,30.5c0-0.2,0-0.3-0.1-0.5c-0.1-0.2-0.1-1.2,0-1.1c-0.1-0.1,0.5-0.8,0.8-0.6c0.1,0,0.3,0,0.2,0.2
	c0.2-0.1,0-0.4-0.2-0.5c-0.4-0.3-1.2,0.7-1.1,0.7c-0.1,0-0.2,1.1,0,1.3C11.3,30.3,11.4,30.4,11.5,30.5z"/>
<path class="st0" d="M11.8,28.2c0.1,0,0.2,0,0.3,0c0.1-0.1,0.7-0.1,0.6,0c0.1-0.1,0.4,0.4,0.3,0.4s0,0.1-0.1,0.1
	c-0.1,0,0.2,0.3,0.3,0c0.2-0.2-0.3-0.8-0.4-0.8c0-0.1-0.7-0.1-0.8,0C11.9,28,11.8,28.1,11.8,28.2z"/>
<path class="st0" d="M12.1,27.8c0.2-0.1,0.5-0.1,0.7-0.1c0.6-0.3,1,1.4,0.7,1.4c-0.1,0.2-0.3,0.4-0.6,0.5c-0.5,0.1-0.5-0.5-0.4-0.4
	c0.3-0.2,0.2,0,0,0.2c0.2,0,0.3-0.1,0.3-0.3c0.1-0.3-0.4-0.3-0.4-0.2c-0.4,0-0.2,1.2,0.5,0.9c0.3-0.1,0.6-0.3,0.8-0.6
	c0.1-0.3,0.1-0.7,0-1c-0.1-0.5-0.6-0.8-1.1-0.7C12.4,27.5,12.2,27.7,12.1,27.8L12.1,27.8z"/>
<path class="st0" d="M14.5,29.7c-0.1,0-0.3,0-0.4,0c0,0-0.5-0.2-0.8,0.1c-0.1,0.1-0.2,0.2-0.3,0.3c-0.4,0.5,1,0.6,1.1,0.3
	c0.1-0.1,0.2-0.3,0.3-0.4c-0.1,0.1-0.3,0.1-0.4,0.2c-0.2,0.1-0.4,0.2-0.5,0.1c-0.1,0-0.2-0.1-0.3-0.1H13c-0.2,0.4,0,0.1,0,0.2h0.1
	c0.1,0,0.2-0.2,0.4-0.4c0.2-0.2,0.4,0,0.5,0C14.3,30,14.4,29.8,14.5,29.7z"/>
<path class="st0" d="M14.1,30.3c-0.1,0-0.3,0.1-0.4,0.1c-0.1,0.1-1,0.4-1,0.3c0,0.1-0.7-0.4-0.6-0.6c0-0.1,0-0.2,0-0.4
	c-0.1,0.1-0.3,0.2-0.2,0.4s0.8,1,0.8,0.8c0,0.2,1-0.2,1.1-0.3C14,30.6,14.1,30.5,14.1,30.3z"/>
<path class="st0" d="M12.7,31c-0.2-0.1-0.3-0.2-0.5-0.3c-0.1-0.1-0.5-0.3-0.4-0.6c0-0.2,0.1-0.4,0.2-0.7c0-0.1,0.1-0.1,0.1-0.2
	l0.1-0.2c-0.4-0.1-0.1,0.1-0.2,0.2c0.2,0.3-0.2,0.6-0.2,0.8c-0.1,0.2,0,0.4,0.2,0.5c0.1,0,0.1,0,0.2,0c-0.1-0.2-0.2-0.3-0.1-0.4
	c0.1-0.2,0.4-0.4,0.3-1c-0.1-0.1,0.2-0.2-0.3-0.2l-0.1,0.2c-0.1,0.1-0.1,0.2-0.1,0.2c-0.1,0.2-0.2,0.5-0.3,0.7
	c0,0.5,0.5,0.8,0.6,0.9C12.2,31,12.4,31,12.7,31z"/>
<path class="st0" d="M14.5,28.5c0.1,0,0.1-0.1,0.1-0.1S14.5,28,14.5,28v0c-0.4-0.2-0.2,0-0.3,0c-0.1,0-0.1,0.1-0.2,0.2
	c0,0.1,0,0.1,0.1,0.2s0.1,0,0.2-0.1s0-0.1,0.1-0.1c0.1,0,0.2,0-0.1-0.1l0,0c0,0,0.1,0.3,0.1,0.3C14.3,28.4,14.4,28.4,14.5,28.5z"/>
<path class="st0" d="M14.1,27.9c0.1-0.2,0.2-0.3,0.1-0.5c-0.2-0.4-0.5-0.8-1-1.1c-0.4,0.3,0,0.3,0,0.7c0,0.3,0.1,0.6,0.2,0.8
	c0.1,0.2,0.2,0.3,0.4,0.3c-0.1-0.2-0.1-0.3-0.2-0.5c-0.2,0-0.1-1.5-0.5-1.1c0.4,0.2,0.6,0.6,0.8,1C14.1,27.5,14,27.7,14.1,27.9z"/>
<path class="st0" d="M14.1,31.4c-0.2,0.2-0.4,0.3-0.7,0.3c-0.5,0.3-1.6-1-1.9-0.8c-0.2,0.5,1.4,1.2,1.5,1.6c0.2,0.2,0.2,0.4,0.2,0.7
	c0.2-0.2,0.2-0.6,0-0.8c-0.1-0.4-1.7-1.5-1.5-1.4C11.3,31,13,32.3,13.5,32C13.9,31.9,14,31.7,14.1,31.4z"/>
<path class="st0" d="M13.2,32.1c0.1,0.1,0.2,0.2,0.3,0.3c0.3,0,0.7,0,1-0.2c0,0.1,0.9-0.5,0.4-0.9c-0.1-0.1-0.3-0.1-0.4,0
	c0.1,0.1,0.2,0.2,0.3,0.2s-0.4,0.5-0.4,0.5s-0.7,0.2-0.8,0.1C13.4,32,13.3,32,13.2,32.1z"/>
<path class="st0" d="M13.7,32.3c0,0.1,0.1,0.1,0.1,0.2c0.2,0,0.3,0.1,0.5,0.1c0,0,0.4,0,0.5-0.1c0.1,0,0.1-0.1,0.1-0.2
	c-0.1,0-0.2,0-0.2,0c0,0-0.4,0-0.3,0.1c-0.1,0-0.3,0-0.4-0.1C13.8,32.2,13.8,32.3,13.7,32.3z"/>
<path class="st0" d="M14,32.5c0,0.1,0,0.2,0.1,0.2l0.4,0.2c0.1,0.1,0.2,0.2,0.3,0.3c0,0.1,0.1,0,0.2,0.1c0.1-0.1,0.1-0.2,0-0.2
	c-0.1-0.1-0.3-0.3-0.4-0.4c-0.1-0.1-0.3-0.2-0.4-0.2C14.1,32.5,14.1,32.5,14,32.5z"/>
<path class="st0" d="M14.1,32.8c0,0.1,0,0.2,0.1,0.2c0.1,0,0.4,0.4,0.4,0.4c0.1,0.2,0.1,0.4,0.1,0.5c0,0.1,0,0.2,0,0.2
	c0.1,0,0.2-0.1,0.2-0.2c0-0.2,0-0.5-0.1-0.7c0,0-0.4-0.5-0.5-0.5C14.3,32.8,14.2,32.8,14.1,32.8z"/>
<path class="st0" d="M11.7,32.3c-0.2,0-0.2-0.1-0.2-0.2c0-0.1,0.1-0.2,0.2-0.2c0.1,0,0.2,0.3,0.2,0.3c0,0,0.1,0.9-0.1,0.9
	c-0.1,0.1-0.2,0.2-0.3,0.3c0.1,0,0.3-0.1,0.4-0.1c0.4-0.1,0.3-1.2,0.2-1.2c-0.1-0.2-0.2-0.4-0.4-0.4c-0.4,0-0.7,0.4-0.5,0.5
	c0,0.1,0.2,0.2,0.3,0.2C11.7,32.4,11.7,32.3,11.7,32.3z"/>
<path class="st0" d="M12.7,32.5c-0.1,0-0.1,0-0.2,0.1l-0.1,0.3c0,0.1-0.1,0.1-0.1,0.2c0,0,0,0.1,0,0.2s0.1,0,0.2,0l0.2-0.3
	c0,0,0.1-0.3,0.1-0.3C12.8,32.6,12.8,32.6,12.7,32.5z"/>
<path class="st0" d="M14.2,33.7c0.1-0.2,0.2-0.3,0.1-0.5s-1-1.1-1-1c-0.4,0.3,0,0.3,0,0.7c0,0.3,0.1,0.6,0.3,0.8
	c0.1,0.2,0.3,0.3,0.4,0.3c-0.1-0.2-0.1-0.2-0.3-0.4c-0.2,0-0.2-1.5-0.5-1.1c0.4,0.2,0.7,0.5,0.9,0.9C14.1,33.4,14.1,33.5,14.2,33.7z
	"/>
<path class="st0" d="M9,14.7c0,0.9,0.1,1.7,0.3,2.5c0,0.3,0.3,0.9,0.5,1.5c0,0.8,0,1.5,0.1,2.3c0.5,1.6,1.4,2.7,1.2,2.7
	c0.3-0.1-1,5.7-0.2,6.9c0.1,1,0.4,1.8-0.2,2.3c0.8-0.5,0.6-1.4,0.5-2.4c-0.8-1.1,0.5-6.7,0.2-6.8c0.2-0.1-0.8-1.3-1.2-2.8
	c-0.1-0.8-0.1-1.5-0.1-2.3c-0.2-0.7-0.4-1.2-0.5-1.5C9.3,16.2,9.2,15.6,9,14.7z"/>
<path class="st0" d="M10.5,30.2c-0.1,0-0.2,0.7,0.1,0.6C10.9,30.8,10.9,30.2,10.5,30.2z"/>
<path class="st0" d="M10.6,31.1c-0.1,0-0.2,0.7,0.1,0.6C11,31.7,11,31.1,10.6,31.1z"/>
<path class="st0" d="M10.7,31.9c-0.1,0-0.3,0.6,0,0.6C11,32.5,11,32,10.7,31.9z"/>
<path class="st0" d="M10.8,23.5c-0.1,0-0.2,0.6,0.1,0.6C11.2,24.1,11.2,23.6,10.8,23.5z"/>
<path class="st0" d="M10.3,22.6c-0.1,0,0,0.7,0.3,0.6C10.8,23,10.6,22.5,10.3,22.6z"/>
<path class="st0" d="M10.6,23.1c-0.1,0-0.1,0.5,0.2,0.4C11.1,23.4,10.9,23.1,10.6,23.1z"/>
<path class="st0" d="M9.5,18.9c-0.1,0-0.1,0.5,0.2,0.4C10,19.2,9.8,18.9,9.5,18.9z"/>
<path class="st0" d="M9.9,21.9c-0.1,0,0,0.7,0.3,0.6C10.4,22.3,10.2,21.8,9.9,21.9z"/>
<path class="st0" d="M9.6,21.1c-0.1,0-0.1,0.7,0.2,0.6C10.1,21.6,9.9,21.1,9.6,21.1z"/>
<path class="st0" d="M9.5,20.3c-0.1,0-0.2,0.6,0.1,0.6C9.9,20.9,9.9,20.3,9.5,20.3z"/>
<path class="st0" d="M9.5,19.5c-0.1,0-0.2,0.6,0.1,0.6S9.9,19.5,9.5,19.5z"/>
<path class="st0" d="M10.4,29.2c-0.1,0-0.2,0.6,0.1,0.6S10.7,29.2,10.4,29.2z"/>
<path class="st0" d="M10.8,24.3c-0.1,0-0.3,0.6,0,0.6S11.2,24.4,10.8,24.3z"/>
<path class="st0" d="M10.3,28.1c-0.1,0-0.2,0.8,0.1,0.7C10.7,28.8,10.6,28.1,10.3,28.1z"/>
<path class="st0" d="M10.3,27.2c-0.2,0-0.3,0.7,0,0.7S10.7,27.2,10.3,27.2z"/>
<path class="st0" d="M10.4,26.2c-0.2,0-0.3,0.8,0.1,0.8C10.9,27,10.9,26.3,10.4,26.2z"/>
<path class="st0" d="M10.7,25.3c-0.2-0.1-0.5,0.6-0.2,0.8S11.2,25.5,10.7,25.3z"/>
<path class="st0" d="M18.1,22.1c0,0.2-0.1,0.4-0.3,0.4c-0.2,0-0.4-0.1-0.4-0.3c0,0,0-0.1,0-0.1c0-0.2,0.1-0.4,0.3-0.4
	c0.2,0,0.4,0.1,0.4,0.3C18.1,22,18.1,22.1,18.1,22.1z"/>
<path class="st0" d="M18.3,23c0,0.2-0.1,0.3-0.2,0.3c-0.1,0-0.2-0.1-0.2-0.3c0-0.2,0.1-0.3,0.2-0.3C18.2,22.7,18.3,22.9,18.3,23z"/>
<path class="st0" d="M18.5,23.9c0,0.2-0.1,0.3-0.2,0.3c-0.1,0-0.2-0.2-0.2-0.3c0-0.2,0.1-0.4,0.2-0.4C18.4,23.6,18.5,23.7,18.5,23.9
	z"/>
<path class="st0" d="M18.8,24.8c0,0.2-0.1,0.3-0.2,0.3s-0.2-0.2-0.2-0.3s0.1-0.3,0.2-0.3S18.8,24.6,18.8,24.8z"/>
<path class="st0" d="M19.1,25.6c0,0.2-0.1,0.3-0.2,0.3c-0.1,0-0.2-0.1-0.2-0.3s0.1-0.3,0.2-0.3C19,25.3,19.1,25.5,19.1,25.6z"/>
<path class="st0" d="M19.3,26.4c0,0.1-0.1,0.2-0.2,0.2S19,26.5,19,26.4s0.1-0.2,0.2-0.2S19.3,26.3,19.3,26.4z"/>
<path class="st0" d="M19.4,27c0,0.1-0.1,0.1-0.2,0.1c-0.1,0-0.1-0.1-0.1-0.2c0-0.1,0.1-0.1,0.1-0.1C19.4,26.9,19.4,26.9,19.4,27z"/>
<path class="st0" d="M3.3,32.3c0.1-0.1,0.2-0.1,0.3-0.2C3.6,31.9,4,31.6,4,31.8c0.2,0.2,0.4,0.4,0.5,0.6c0.1,0.1,0.1,0.2,0.3,0.2
	c0-0.1,0-0.2,0-0.3c0-0.1-0.5-0.8-0.6-0.7c-0.1-0.3-0.9,0.2-0.8,0.4C3.3,32.1,3.3,32.2,3.3,32.3z"/>
<path class="st0" d="M5.1,32.5c-0.1,0-0.2,0-0.3,0c-0.2,0.1-0.3,0.2-0.5,0.4C4.2,33,4,33.2,3.9,33.4c0,0.1,0,0.2,0,0.3
	c0.1-0.1,0.2-0.1,0.2-0.2c0.1-0.2,0.2-0.3,0.4-0.4c0,0,0.4-0.3,0.5-0.4C5,32.7,5.1,32.6,5.1,32.5z"/>
<path class="st0" d="M3.3,33.9c0.1-0.1,0.2-0.1,0.2-0.2C3.6,33.7,4,34,4,34c0.2,0.2,0.4,0.3,0.5,0.5c0.1,0.1,0.1,0.1,0.2,0.2
	c0.1-0.1,0.1-0.2,0-0.3c-0.2-0.2-0.4-0.4-0.6-0.6c0,0-0.6-0.6-0.9-0.2C3.2,33.6,3.2,33.8,3.3,33.9z"/>
<path class="st0" d="M5.2,34.3c-0.2,0-0.4,0.1-0.6,0.2c-0.4,0.1-1,1.4-0.8,1.4c0,0,0,0.1,0,0.2v0.1c0.1,0-0.3,0.1,0.3,0l0,0L4,36
	c-0.1-0.3-0.2-0.6-0.4-0.8c-0.1-0.2-0.3-0.3-0.5-0.3c0.1,0.1,0.2,0.3,0.3,0.5c0.1,0.2,0.3,0.5,0.3,0.8l0.1,0.2v0.1
	c0.5-0.1,0.1-0.1,0.3-0.1v-0.1c0-0.1,0-0.1,0-0.2c-0.1,0,0.3-1.2,0.7-1.3C5,34.6,5.1,34.5,5.2,34.3z"/>
<path class="st0" d="M3.5,36.3c0,0.2,0.2,0.3,0.4,0.4c0.4,0.2,1.4-0.8,1-0.5c-0.1,0.4-0.2,0.8-0.5,1.2c-0.1,0.2-0.1,0.3-0.2,0.4
	c0.2,0,0.4-0.1,0.5-0.3c0.3-0.4,0.5-0.9,0.5-1.4c0,0,0.1-0.1-0.2-0.3c-0.1,0.1-0.3,0.2-0.4,0.3c-0.1,0.2-0.4,0.3-0.6,0.2L3.5,36.3z"
	/>
<path class="st0" d="M4.5,38.9c0.4-1,1.2-1.3,1.6-2.6c0.1-0.6,0.1-1.3,0-1.9C6,34,5.9,33.6,5.9,33.1c0-0.2,0-0.4,0-0.6l0.1-0.2
	c-0.6-0.4-0.3,0.1-0.5,0.1c-0.2,1.2-0.1,2.4,0.3,3.6c0.3,1.2,0.8,2.3,1.4,3.3c0.1,0.5,1.1,0.9,1.4,0.3c0.3-0.4,0.5-0.8,0.6-1.3
	c0.1-0.4,0.2-0.8,0.2-1.1c-0.2-0.1,0.4-0.1-0.4-0.3l-0.1,0.2l-0.1,0.3c-0.2,0.4-0.4,0.8-0.6,1.1C8.1,38.1,8,37.7,8,37.2
	c0,0.5-0.2,1,0.1,1.5c0.9,0,0.8-0.7,1.2-1.2c-0.2-2.1-0.3,3.3-1.7,1.6c-0.6-1-1-2.1-1.3-3.2c-0.3-1.1-0.4-2.2-0.3-3.4
	c-0.1-0.2,0.4,0.1-0.2-0.5l-0.3,0.4c-0.1,0.3-0.1,0.5-0.1,0.8c0,0.4,0.1,0.9,0.1,1.3c0.1,0.6,0.1,1.2,0,1.7
	C5.4,37.3,4.7,37.8,4.5,38.9z"/>
<path class="st0" d="M5,38.1C5,38.2,5,38.3,5,38.4c0,0.2,0.7,0.8,0.7,0.7c0,0.1,0.9,0,1-0.2c0.1-0.1,0.2-0.2,0.2-0.3
	c-0.1,0-0.3,0-0.4,0.1c-0.1,0.2-0.8,0.2-0.8,0.1c0-0.1-0.6-0.4-0.6-0.6C5.2,38.2,5.1,38.1,5,38.1z"/>
<path class="st0" d="M3.9,43.6c0.1-0.1,0.2-0.2,0.3-0.4c0.1-0.3,0.6-1.1,0.5-0.7c0.1-0.2-0.2,1.1,0.4,1.2c0.1,0.1,0.2,0.2,0.3,0.3
	c0.1-0.2,0-0.4-0.2-0.5c-0.4,0-0.1-1-0.3-1.1c0.1,0-0.5-0.3-0.6,0.1c-0.1,0.2-0.2,0.5-0.3,0.7C3.9,43.3,3.9,43.4,3.9,43.6z"/>
<path class="st0" d="M4.5,39.1c0.1,1.4,0.5,2.8,1,4.1c0.1,0.4,0.4,0.7,0.7,1c0.1-0.1,0.2,0.9,0.5,1.3c0.2,0.3,0.4,0.5,0.6,0.8h0l0,0
	l0,0c0,0.1,0.4-0.9,0.2-0.5H7.4H7.1c-0.2,0-0.3,0.2-0.5,0.3C6.3,46.3,6,46.7,6,47l-0.1,0.5c0.3-0.3,0,0,0-0.1
	c-0.4-0.1-0.8-1-0.5-1.1c0.3-0.3,1.3-0.8,0.7-1.6c-0.2-0.2-0.5-0.3-0.8-0.3c-0.3,0.1-0.4,0.4-0.4,0.6c0,0,0,0,0,0c0,0.3,0,0.1,0,0.1
	c-0.5,0.2-0.9,0.6-1.2,1.1c-0.1,0.3,0,0.7,0.2,1c0.2,0.2,0.3,0.4,0.4,0.6C4.7,48.4,5,49,5.3,49.6c1.4,2.3,2,5,3.2,5.6
	c1.1,0.3,1.4,0.1,2.1,0.5c0.7,0,1.3-0.3,1.9,0c-0.6-0.5-1.3-0.3-1.9-0.4c-0.1,0-0.1,0-0.2,0c0,0.1-0.1-0.3,0,0.3
	c0.1-0.3,0-0.3-0.1-0.4C10.2,55.1,10,55,9.8,55c-0.4-0.1-0.8-0.1-1.1-0.2C8,54.6,7,51.6,5.8,49.4c-0.3-0.6-0.6-1.1-0.9-1.7
	c-0.1-0.3-0.3-0.5-0.5-0.8c-0.1-0.1-0.1-0.2-0.1-0.4c0.2-0.4,0.6-0.7,1-0.9c0,0,0.3-0.4,0.2-0.6C5.4,45,5.2,44.8,5.3,45
	c0.1,0,0.2,0.1,0.3,0.2c0.2,0-0.2,0.5-0.7,0.8c-0.7,0.8,0,1.5,0.6,1.9c0.2,0,0.5,0.3,0.8-0.3l0.1-0.4c0.1-0.3,0.2-0.5,0.4-0.7
	c0.1,0,0.2-0.2,0.3-0.2h0.2h0.1c-0.2,0.4,0.3-0.6,0.2-0.5l0,0l0,0c-0.2-0.2-0.4-0.4-0.5-0.7c-0.4-0.5-0.1-0.8-0.7-1.4
	C6.2,43.6,6.1,43.3,6,43C5.3,41.5,5,40.5,4.5,39.1z"/>
<path class="st0" d="M8.2,55.7c-0.4-0.2-0.4-0.5-0.6-0.9c-0.4-1-0.9-1.9-1.5-2.8c0,0-1.3-2.3-1.5-2.8c-0.2-0.5-0.4-0.7-0.6-1
	c0,0.4,0.1,0.8,0.3,1.1c0.2,0.5,1.5,2.8,1.5,2.8c0.5,0.9,1,1.8,1.5,2.8C7.6,55.4,7.8,55.7,8.2,55.7z"/>
<path class="st0" d="M8,56c-0.3-0.2-0.4-0.5-0.7-0.9S6,52.4,5.9,52.4s-1.2-2.3-1.4-2.8c-0.2-0.3-0.4-0.7-0.5-1
	c0,0.4,0.1,0.8,0.3,1.1c0.2,0.5,1.4,2.8,1.4,2.8s1.1,2.3,1.4,2.8C7.3,55.6,7.6,55.9,8,56z"/>
<path class="st0" d="M7.8,56.2c-0.3-0.2-0.5-0.4-0.8-0.7c-0.3-0.3-1.2-2.7-1.3-2.6c-0.1,0.1-1.2-2.1-1.4-2.6c-0.2-0.4-0.4-0.6-0.5-1
	c0,0.4,0.1,0.7,0.3,1.1C4.4,50.9,5.6,53,5.5,53c0,0,0.9,2.2,1.3,2.6C7.1,56,7.4,56.2,7.8,56.2z"/>
<path class="st0" d="M7.6,56.5c-0.3-0.2-0.5-0.4-0.7-0.7c-0.4-0.8-0.9-1.6-1.2-2.4c0,0-1.2-1.9-1.4-2.3c-0.2-0.3-0.3-0.6-0.4-0.9
	c-0.1,0.3,0,0.7,0.2,1c0.2,0.4,1.4,2.3,1.4,2.3c0,0,0.8,2.1,1.3,2.4C6.9,56.3,7.2,56.5,7.6,56.5z"/>
<path class="st0" d="M7.4,56.7c-0.2-0.2-0.5-0.4-0.7-0.6c-0.4-0.2-1.1-2.1-1.2-2.1s-1-1.8-1.2-2.2c-0.2-0.4-0.3-0.5-0.5-0.8
	c0,0.3,0.1,0.6,0.2,0.9c0.2,0.4,1.2,2.1,1.2,2.1c0,0,0.8,1.9,1.2,2.1C6.7,56.6,7,56.7,7.4,56.7z"/>
<path class="st0" d="M7,56.9c-0.2-0.2-0.4-0.3-0.6-0.5c-0.5-0.5-0.9-1.1-1.1-1.8c-0.3-0.7-0.6-1.3-1.1-1.9C4.1,52.5,4,52.2,3.8,52
	c0,0.3,0.1,0.6,0.2,0.8c0.4,0.6,0.8,1.2,1.1,1.9c0.2,0.7,0.6,1.4,1.1,1.9C6.5,56.8,6.7,56.9,7,56.9z"/>
<path class="st0" d="M6.7,57.1c-0.2-0.2-0.2-0.3-0.4-0.5c-0.4-0.5-0.7-1-1.1-1.5c0,0-0.6-1.4-0.8-1.7C4.2,53.2,4,53,3.9,52.9
	c0,0.2,0.1,0.5,0.2,0.7c0.2,0.2,0.8,1.7,0.8,1.7c0.3,0.5,0.7,1.1,1.1,1.5C6.2,56.9,6.4,57.1,6.7,57.1z"/>
<path class="st0" d="M6.5,57.2C6.3,57,6.2,57,6,56.8c-0.4-0.3-0.7-0.7-1-1.2c0,0-0.7-1.2-0.8-1.4C4.2,54,4.1,53.8,4,53.7
	c0,0.2,0,0.4,0.1,0.6c0.1,0.3,0.8,1.4,0.8,1.4c0.3,0.5,0.6,1,1.1,1.3C6.1,57.2,6.3,57.2,6.5,57.2z"/>
<path class="st0" d="M5.3,57.4c-0.1-0.1-0.1-0.2-0.2-0.3c-0.2-0.3-0.4-0.6-0.6-0.9c0,0-0.4-0.8-0.5-1C3.9,55.1,3.8,55,3.6,55
	c0,0.1,0,0.3,0.1,0.4l0.5,1c0.2,0.3,0.4,0.6,0.6,0.9C5,57.3,5.2,57.4,5.3,57.4z"/>
<path class="st0" d="M3.8,49.1c-0.2,0.1-0.3,0.3-0.4,0.5C3.1,50.2,3,50.8,3,51.4c0,0.6,0.1,1.2,0.2,1.8c0.1,0.2,0.1,0.5,0.4,0.5
	c-0.2-0.1-0.1-0.3-0.1-0.6c-0.1-0.2-0.2-1.8-0.2-1.8c0-0.6,0.1-1.1,0.3-1.7C3.7,49.6,3.8,49.3,3.8,49.1z"/>
<path class="st0" d="M8.2,57.7c-0.1,0-0.1,0-0.2,0c-0.2,0-0.4,0.4-0.3,0.4c0,0.2,0,0.3,0,0.5c0,0.1,0.1,0.1,0.2,0.1
	c0.1,0,0.1-0.1,0.1-0.2c0-0.1,0-0.3,0-0.4c0,0,0.1-0.3,0.2-0.3S8.2,57.8,8.2,57.7z"/>
<path class="st0" d="M8.8,57.7c-0.1-0.1-0.2-0.1-0.3,0c-0.2,0.1-0.3,0.6-0.3,0.6c0,0.2,0.1,0.4,0.2,0.6C8.6,59,8.7,59,8.8,59
	c0-0.1,0-0.2,0-0.2c-0.1-0.1-0.2-0.3-0.2-0.4c0,0,0.1-0.4,0.2-0.4C8.9,57.9,8.8,57.8,8.8,57.7z"/>
<path class="st0" d="M9.3,57.8c-0.1,0-0.3,0-0.3,0.1c0,0,0,0,0,0c-0.1,0.2-0.1,0.5-0.1,0.8c0,0.3,0.1,0.5,0.3,0.7
	c0.1,0.1,0.2,0.1,0.3,0.1c0-0.1-0.1-0.2-0.1-0.2c-0.1-0.2-0.2-0.4-0.2-0.6c0-0.2,0-0.4,0-0.6C9.2,58,9.2,58,9.3,57.8z"/>
<path class="st0" d="M9.6,57.6c-0.1,0.1-0.1,0.2-0.2,0.3c0,0.3,0,0.5,0.1,0.8c0.1,0.3,0.2,0.5,0.5,0.7c0.1,0.1,0.2,0.1,0.3,0
	c-0.1-0.1-0.1-0.2-0.2-0.2C10,59,9.8,58.8,9.8,58.6c-0.1-0.2-0.1-0.5-0.1-0.7C9.7,57.8,9.7,57.7,9.6,57.6z"/>
<path class="st0" d="M9.8,57.4c-0.1,0.1-0.1,0.2-0.1,0.4c0,0.3,0.1,0.7,0.3,1c-0.1,0,0.5,0.7,0.8,0.7c0.1,0,0.3,0,0.4,0
	c-0.1-0.1-0.2-0.2-0.3-0.2c-0.2,0-0.7-0.6-0.6-0.6c-0.1-0.3-0.2-0.6-0.3-0.9C10,57.7,9.9,57.5,9.8,57.4z"/>
<path class="st0" d="M10.1,57.2c-0.1,0.1-0.1,0.3,0,0.5c0.1,0.4,0.3,0.7,0.6,1c0,0,0.6,0.8,0.8,0.8c0.1,0.1,0.3,0.1,0.5,0
	c-0.1-0.1-0.2-0.2-0.3-0.3c-0.3-0.2-0.6-0.5-0.8-0.8c-0.2-0.3-0.4-0.6-0.5-1C10.2,57.4,10.1,57.3,10.1,57.2z"/>
<path class="st0" d="M10.4,57c-0.1,0.1-0.1,0.3,0,0.4c0.1,0.4,0.3,0.7,0.6,1c0.3,0.3,0.6,0.5,1,0.7c0.1,0,0.3,0,0.4,0
	c-0.1-0.1-0.2-0.2-0.3-0.2c-0.3-0.1-0.6-0.4-0.8-0.6c-0.2-0.3-0.4-0.6-0.5-0.9C10.6,57.2,10.5,57.1,10.4,57z"/>
<path class="st0" d="M10.7,56.8c0.2,0.2,0.4,0.3,0.6,0.4c0.3,0.1,1.7,0.7,1.7,0.7s1.4,0.6,1.7,0.8c0.2,0.1,0.5,0.1,0.7,0.1
	c-0.2-0.2-0.4-0.3-0.6-0.4l-1.7-0.8c0,0-1.4-0.6-1.7-0.8C11.2,56.7,10.9,56.7,10.7,56.8z"/>
<path class="st0" d="M21.3,54.8c-0.1,0.2-0.2,0.4-0.3,0.6c0.1,0.3-0.8,1.5-0.8,1.5c-0.3,0.5-0.7,0.9-1.2,1.2
	c-0.2,0.1-0.4,0.2-0.5,0.2c0.2,0.1,0.5,0.1,0.7,0c0.5-0.4,0.9-0.8,1.3-1.3c0.4-0.5,0.7-1,0.8-1.6C21.3,55.2,21.3,55,21.3,54.8z"/>
<path class="st0" d="M21.3,56c-0.1,0.1-0.2,0.2-0.3,0.3c-0.1,0.2-0.5,1-0.5,1c-0.2,0.3-0.4,0.6-0.6,0.9c-0.1,0.1-0.1,0.2-0.2,0.4
	c0.2,0,0.3-0.1,0.4-0.2c0.2-0.3,0.4-0.6,0.6-1c0,0,0.5-0.8,0.5-1C21.3,56.3,21.3,56.1,21.3,56z"/>
<path class="st0" d="M21.4,57.1c-0.1,0-0.2,0-0.2,0.1s-0.4,0.5-0.4,0.5c-0.1,0.2-0.3,0.3-0.4,0.5c-0.1,0.1-0.1,0.2-0.1,0.3
	c0.1,0,0.2,0,0.3-0.1c0.2-0.2,0.3-0.3,0.5-0.5c0,0,0.3-0.5,0.4-0.5C21.4,57.3,21.4,57.2,21.4,57.1z"/>
<path class="st0" d="M21.5,51.4c0,0.3-0.1,0.5-0.2,0.8c-0.1,0.2-0.4,0.5-0.9,1c-0.2,0.3-0.3,0.7-0.4,1.1c-0.2,0.8-0.6,1.5-1,2.1
	c-0.2,0.3-0.3,0.4-0.5,0.8c0.3-0.1,0.6-0.3,0.8-0.5c0.5-0.7,0.8-1.4,1.1-2.2c0.1-0.3,0.2-0.7,0.3-1c0.3-0.3,0.9-0.8,1-1
	C21.8,52,21.7,51.6,21.5,51.4z"/>
<path class="st0" d="M13.3,57.2c0.2-0.5,0.3-1.6-0.1-1.8c1,0,5.5-1.7,5.4-2c0.2,0.1,0.4-1.3,1.6-1.7c0.2-0.3,0.8,0,0.6-0.7
	c-0.3,0.2-0.6,0.3-0.8,0.4c-0.5,0.3-1,0.5-1.2,0.5c-0.6,0.3-1.3,0.6-1.9,0.7c0.7,0.1,1.4,0,2.1-0.3c0.2-0.1,0.7-0.3,1.2-0.6
	c0.3-0.1,0.5-0.3,0.8-0.5c-0.5-0.7-0.7,0-1,0c-0.6,0.2-1.1,0.7-1.3,1.3c-0.1,0.2-0.2,0.4-0.4,0.5c0.2,0.2-4.3,2-5.2,1.9
	C12.9,56.2,13.4,56.4,13.3,57.2z"/>
<path class="st0" d="M12.4,54.3c0.5,0.1,1,0,1.5-0.1c1.3-0.4,2.5-1,3.6-1.8c1.1-0.8,2-1.7,2.9-2.7c0.3-0.4,0.6-0.8,0.8-1.3
	c-0.4,0.3-0.7,0.6-1.1,1c-0.8,1-1.8,1.9-2.8,2.7c-1.1,0.7-2.2,1.3-3.4,1.8C13.3,54,12.8,54.1,12.4,54.3z"/>
<path class="st0" d="M20.9,47.6c-0.1,0-0.2,0.1-0.3,0.1c0,0-0.8,0.4-0.7,0.5c0.1,0.2-0.2,0.6-0.4,0.5c-0.1,0-0.2,0.1-0.3,0.2
	c0.2,0.1,0.2,0.1,0.3,0.1c0.3,0.2,0.7-0.7,0.6-0.7c-0.1-0.1,0.4-0.3,0.6-0.4C20.9,47.8,20.9,47.7,20.9,47.6z"/>
<path class="st0" d="M17.2,51.3c-0.1-0.1-0.3-0.1-0.4-0.1c-0.2-0.1-1.1,0.4-1,0.5c0.1,0.2-0.3,0.6-0.6,0.4c-0.2,0-0.3,0.1-0.4,0.2
	c0.1,0,0.2,0,0.4,0c0.2,0.1,0.5,0,0.7-0.1c0.1-0.1,0.2-0.3,0.2-0.5c-0.1-0.1,0.6-0.4,0.8-0.4C17,51.4,17.1,51.3,17.2,51.3z"/>
<path class="st0" d="M21.2,47.7c-0.7-0.5-1.3-1-1.9-1.6c-0.1-0.1-0.3-0.3-0.4-0.4c-0.8-0.2-0.6,0.3-1,0.5c-0.3,1,0.5,1.4,0.5,2.3
	c0.3,0.9-0.1,1.9-0.9,2.3c0.1,0.2-1.3,0.3-2.1-1.3c-0.1-0.2-0.2-0.3-0.3-0.5c0-0.1-0.1-0.1-0.1-0.2c-0.5,0-0.2,0-0.4,0L14.4,49
	c-0.3,0.4-0.7,0.1-0.8,1c0.2,0.4,0.4,0.9,0.5,1.4c0.2,1,0.2,1.7-0.6,2c1-0.1,1.3-1.1,1-2.1c-0.1-0.5-0.3-1-0.6-1.5
	c-0.2,0.2,0.5-0.3,0.7-0.4l0.2-0.2c-0.1,0,0.3,0-0.1-0.1c0,0,0,0.1,0.1,0.1l0.3,0.5c0.3,0.7,0.9,1.2,1.5,1.5c0.3,0.1,0.7,0.1,1-0.1
	c1-0.5,1.5-1.7,1.1-2.8c0-0.7-0.8-1.8-0.6-1.9c0.1-0.2,0.8-0.6,0.3-0.6c0.1,0.2,0.3,0.4,0.4,0.5C19.6,47,20.3,47.4,21.2,47.7z"/>
<path class="st0" d="M18.8,46.4c0,0.1,0,0.2,0,0.3c0.1,0.2,0.3,0.5,0.4,0.7c0.1,0.2,0.3,0.5,0.5,0.7c0.1,0.1,0.2,0.1,0.3,0
	c-0.1-0.1-0.1-0.1-0.2-0.2c-0.2-0.2-0.3-0.4-0.5-0.6c0,0-0.3-0.6-0.4-0.7C18.9,46.4,18.9,46.4,18.8,46.4z"/>
<path class="st0" d="M18.4,46.7c0,0.1,0,0.3,0,0.4c0.1,0.3,0.2,0.6,0.3,0.9c0.1,0.3,0.1,0.6,0.1,1c0,0.1,0,0.3,0.1,0.4
	c0.1-0.1,0.2-0.2,0.2-0.3c0-0.3,0-0.7-0.1-1c-0.1-0.3-0.2-0.7-0.4-1C18.7,46.9,18.6,46.8,18.4,46.7z"/>
<path class="st0" d="M14.8,49.5c0,0.1,0,0.2,0,0.3c0,0.1,0.3,0.7,0.3,0.7c0.1,0.2,0.2,0.5,0.4,0.7c0.1,0.1,0.2,0.1,0.3,0.1
	c0-0.1,0-0.2-0.1-0.3c-0.1-0.2-0.3-0.4-0.3-0.6c0,0-0.3-0.6-0.3-0.7C15,49.6,14.9,49.6,14.8,49.5z"/>
<path class="st0" d="M14.4,49.8c-0.1,0.1-0.1,0.2,0,0.3c0,0.1,0.3,0.7,0.3,0.7c0.1,0.2,0.2,0.4,0.2,0.7c0,0.1,0.1,0.2,0.1,0.3
	c0.1-0.1,0.2-0.2,0.2-0.3c0-0.3-0.1-0.5-0.2-0.8c0,0-0.3-0.6-0.3-0.7C14.6,49.9,14.5,49.8,14.4,49.8z"/>
<path class="st0" d="M10.3,50.5c0.9,0.7,1.9,0.3,2.9-0.2c1.3-0.6,6.2-5.2,6.3-5.1l0.8-0.7c0.4-0.6,1.4-0.6,1.7-2
	c0-0.3-0.7-0.7-0.3-0.4c0.1-0.2,0.1-0.5,0.1-0.7c0.1-0.5,0-1-0.2-1.5c-0.3-0.4-1,0.1-0.8,0.2c-0.1,0.2-0.1,0.4-0.1,0.6
	c0,0.3,0,0.5,0,0.8c0,0.7,0.1,1-0.2,1.4c-0.3,0.4-0.6,0.7-1,0.3c0.9,1.1,2-0.7,1.7-1.7c-0.1-0.2,0.2-1.3,0.1-1.3
	c0.1,0.4,0.1,0.7,0.1,1.1c0,0.2,0,0.4-0.1,0.7c0.1,0.8,0.3,0.4,0.3,0.7c-0.8,0.8-1.6,1.5-2.4,2.2c-0.1-0.1-5,4.6-6.2,5.1
	C11.9,50.3,11.3,50.8,10.3,50.5z"/>
<path class="st0" d="M18.4,45.5c0.3-0.2,0.5-0.5,0.5-0.9c0.2-0.9,0.2-1.8,0.2-2.7c0-0.4-0.1-0.7-0.1-1.1c0.1-0.4,0.4-0.8,0.8-1
	c0.3-0.1,0.6-0.3,0.8-0.1c0-0.4-0.6-0.4-0.9-0.3c-0.5,0.2-0.9,0.7-1,1.3c0,0.4,0,0.8,0.1,1.2c0.1,0.9,0,1.7-0.2,2.6
	C18.4,44.9,18.5,45.1,18.4,45.5z"/>
<path class="st0" d="M20.7,38.9c-0.1-0.2-0.4-0.2-0.6-0.1c0,0.1-0.5,0.1,0,0.2c-0.1-0.1-0.1-0.2-0.2-0.3c-0.3-0.4-2.5-1.9-2.7-1.6
	c-1,0.1-2.1,0.3-3.1,0.7c-0.5,0.1-0.6,0.4-1,0.4c0.4,0.2,0.7,0.1,1.2,0c0.9-0.3,1.9-0.5,2.9-0.6c0-0.3,2.2,1.1,2.5,1.5
	c0.1,0.1,0.1,0.1,0.2,0.2c0.7,0.1,0.3-0.1,0.5-0.1C20.4,39,20.6,38.9,20.7,38.9z"/>
<path class="st0" d="M15.4,42.6c-0.2,0.6-0.4,1.3-0.5,1.9c0.1,0.7-0.6,1.3,0.1,2.2c0.9-0.3,1.5-1.1,1.7-2c0.2-1.3-0.6-2.5-0.4-3.8
	c0.1-0.7,0-1.3-0.3-1.9c-0.1-0.3-0.3-0.5-0.5-0.7c-0.4-0.3-0.6,0-0.8,0c-0.5,0.1-1,0.3-1.5,0.5c0.1,0-0.4-0.1-0.1,0.5
	c0.3,0.2,0.6,0.3,1,0.5c1,0.3,0.7,1.8,0.1,2.9c-0.7,1.1-1.1,2.4-1,3.7c0.2,0.5,0.4,1.3,1.2,1c0-0.4,0-0.7-0.1-1.1
	c-0.1-1.4,0.2-2.8,0.8-4c-0.8,1.2-1.2,2.6-1.1,4c0,0.2,0.1,0.7,0.1,1c0.1,0-0.7-0.5-0.7-1c-0.1-1.2,0.2-2.5,0.9-3.5
	c0.7-1,1-2.9-0.2-3.2c-0.4-0.2-0.8-0.4-1-0.5c-0.1,0.1,0.1-0.1,0.1-0.1c0.4-0.2,0.9-0.4,1.4-0.4c0.5-0.3,0.7,0,1,0.6
	c0.3,0.5,0.4,1.2,0.3,1.8c-0.2,1.3,0.6,2.7,0.4,3.7c-0.2,0.8-0.8,1.4-1.5,1.8C15,45.2,15.1,43.9,15.4,42.6z"/>
<path class="st0" d="M9.1,42.7c-0.3-0.1-0.6,0.5-0.5,0.9C8.8,44,9.3,44,9.4,43.8C9.6,43.5,9.5,42.8,9.1,42.7z"/>
<path class="st0" d="M9.3,42.5c-0.2-0.1-0.4,0.1-0.6,0.3c-0.2,0.3-0.3,0.7-0.1,1.1c0.1,0.3,0.3,0.5,0.6,0.6c0.3,0,0.6-0.2,0.7-0.4
	c0.1-0.3,0.1-0.7,0-1.1C9.7,42.7,9.5,42.5,9.3,42.5c0.2,0.1,0.4,0.3,0.4,0.5c0.1,0.3,0.1,0.7,0,1c-0.1,0.2-0.3,0.4-0.6,0.4
	c-0.2-0.1-0.4-0.3-0.5-0.5c-0.1-0.3-0.1-0.7,0.1-1C8.9,42.6,9,42.5,9.3,42.5z"/>
<path class="st0" d="M9.3,41.7c-0.6,0-1,0.4-1.1,1c-0.1,0.8-0.1,1.6,0,2.3c0,0.5,0.2,0.9,0.6,1.2c0.2,0.1,0.4,0.2,0.6,0.1
	c0.7-0.1,1.2-0.7,1.2-1.4c0.1-0.8,0-1.6-0.3-2.3C10.2,42.1,9.8,41.6,9.3,41.7c0.5,0.2,0.5,0.6,0.7,1.1c0.2,0.7,0.3,1.4,0.3,2.2
	c0,0.5-0.3,1-0.9,1c0,0,0,0,0,0c0,0.1-0.7,0-0.8-1c-0.1-0.7-0.1-1.5,0-2.2C8.7,42.3,8.8,41.9,9.3,41.7z"/>
<path class="st0" d="M10.2,42.3c-0.1-0.1-0.1-0.1-0.1-0.1l-0.2,0.1l-0.2,0.1c0,0,0,0.1,0,0.2s0.1,0.1,0.1,0.1l0.2-0.1l0.2-0.1
	C10.2,42.5,10.2,42.4,10.2,42.3z"/>
<path class="st0" d="M10.5,43.9c0-0.1,0-0.1,0-0.2l-0.3-0.1L10,43.5c0,0-0.1,0-0.2,0.1c-0.1,0.1,0,0.1,0,0.2c0,0,0.3,0.1,0.3,0.1
	l0.3,0.1C10.4,44,10.4,44,10.5,43.9z"/>
<path class="st0" d="M10.4,45.6c0-0.1,0-0.2,0-0.3l-0.3-0.5c0,0-0.3-0.4-0.3-0.5c-0.1-0.1-0.1-0.1-0.2-0.1c0,0.1,0,0.2,0,0.3
	c0,0.1,0.3,0.5,0.3,0.5l0.3,0.5C10.2,45.5,10.3,45.6,10.4,45.6z"/>
<path class="st0" d="M9.3,46c0.1-0.1,0.1-0.1,0.1-0.2l-0.1-0.6l-0.1-0.6c0-0.1-0.1-0.2-0.2-0.2C9,44.4,9,44.4,9,44.5
	C9,44.6,9,45.2,9,45.2l0.1,0.6C9.1,45.9,9.2,45.9,9.3,46z"/>
<path class="st0" d="M8.6,44c-0.1,0-0.1,0-0.2,0l-0.1,0.2l-0.1,0.2c0,0,0,0.1,0.1,0.1c0.1,0.1,0.1,0,0.2,0l0.1-0.2l0.1-0.2
	C8.7,44.1,8.7,44,8.6,44z"/>
<path class="st0" d="M8.3,43.1c0,0.1,0,0.1,0,0.1h0.1h0.1c0,0,0,0,0-0.1c0-0.1,0-0.1,0-0.1h0H8.4C8.4,43,8.4,43,8.3,43.1z"/>
<path class="st0" d="M9.2,42C9.1,42,9,42,9,42c0,0,0,0.1,0,0.1s0,0.1,0,0.1s0,0,0.1,0.1s0.1,0,0.1,0c0,0,0-0.1,0-0.1
	c0,0,0-0.1,0-0.1C9.3,42,9.3,42,9.2,42z"/>
<path class="st0" d="M8.8,32.2c-0.1,0.1-0.1,0.2-0.1,0.3c0,0.1,0,0.8,0,0.8c0,0.3-0.1,0.5-0.1,0.7c0,0.1,0,0.1,0,0.3
	c0.1,0,0.2-0.1,0.3-0.2C8.9,33.8,9,33.6,9,33.3c0,0,0-0.7,0-0.8C9,32.4,8.9,32.3,8.8,32.2z"/>
<path class="st0" d="M7.9,33.2c-0.1,0.1-0.1,0.2-0.1,0.4c0.1,0.3,0.2,0.6,0.3,0.9c0.1,0.3,0.3,0.6,0.5,0.9c0.1,0.1,0.2,0.2,0.4,0.1
	c0-0.1-0.1-0.2-0.2-0.3c-0.2-0.3-0.3-0.5-0.5-0.8c-0.1-0.3-0.2-0.6-0.3-0.9C8.1,33.3,8,33.2,7.9,33.2z"/>
<path class="st0" d="M7.9,35.1c0,0.2,0.1,0.3,0.1,0.5c0.2,0.1,0.4,1.5,0.8,1c-0.2,0,0.3-1,0.6-1c0.1-0.1,0.2-0.2,0.3-0.4
	c-0.2,0-0.4,0.1-0.5,0.2c-0.3,0.1-0.9,1.2-0.7,1.3c0.6,0.2-0.3-1-0.3-1.2C8.2,35.3,8.1,35.2,7.9,35.1z"/>
<path class="st0" d="M9.9,36c-0.1,0.1-0.2,0.1-0.3,0.2c-0.2,0.2-0.4,0.5-0.7,0.6c0,0-0.7,0.4-0.6,0.2c0-0.1-0.1-0.2-0.1-0.3
	c-0.1,0.1-0.1,0.2-0.1,0.4c0.1,0.6,1.1,0,1,0c0.3-0.2,0.5-0.4,0.7-0.7C9.9,36.3,10,36.2,9.9,36z"/>
<path class="st0" d="M11.1,35.4c0,0.1,0.1,0.3,0.2,0.4c0.2,0.3,0.3,0.6,0.4,1c0.1,0.3,0.1,0.7,0.1,1.1c0,0.2-0.1,0.2-0.1,0.4
	c0.1-0.1,0.2-0.2,0.2-0.4c0-0.4,0-0.8-0.1-1.1c-0.1-0.4-0.2-0.7-0.4-1C11.3,35.5,11.2,35.4,11.1,35.4z"/>
<path class="st0" d="M10.9,35.6c0,0.1,0,0.3,0.1,0.4c0.1,0.3,0.3,0.6,0.4,1c0.1,0.3,0.1,0.7,0.1,1c0,0.2-0.1,0.2-0.1,0.4
	c0.1-0.1,0.2-0.2,0.2-0.3c0.1-0.4,0-0.7-0.1-1.1c-0.1-0.3-0.2-0.7-0.4-1C11.1,35.8,11,35.7,10.9,35.6z"/>
<path class="st0" d="M10.7,35.9c0,0.1,0.1,0.3,0.1,0.4c0.1,0.3,0.3,0.6,0.4,1c0.1,0.3,0.1,0.6,0.1,1c0,0.2-0.1,0.2-0.1,0.4
	c0.1-0.1,0.2-0.2,0.2-0.3c0.1-0.4,0-0.7-0.1-1.1c-0.1-0.3-0.2-0.7-0.3-1C10.8,36.1,10.8,36,10.7,35.9z"/>
<path class="st0" d="M10.5,36.2c0,0.1,0,0.2,0.1,0.4c0.1,0.3,0.2,0.6,0.3,0.9c0,0,0.1,0.8,0,0.9c-0.1,0.1-0.1,0.2-0.1,0.3
	c0.1-0.1,0.2-0.2,0.2-0.3c0.2-0.1,0.1-1,0-1c-0.1-0.3-0.2-0.6-0.3-0.9C10.7,36.4,10.6,36.3,10.5,36.2z"/>
<path class="st0" d="M10.3,36.5c0.1,0.5,0.1,0.8,0.2,1.4c0.1,2.3-0.2-2.1-0.3-1.8c0,0-0.7-3.2-0.7-3.8c0-0.4,0.4-0.6,0.4,0.1
	c0.1-0.2,0.2-0.5-0.1-0.7c-0.3-0.2-0.7,0.3-0.7,0.6c0,0.7,0.7,3.8,0.7,3.8c0,0,0.2,0.8,0.3,1.7v0.7c0.1,0.2-0.1,0,0.2,0.5
	c0.2,0,0.3,0.1,0.5-0.1c0.2-0.3,0.3-0.7,0.2-1C10.8,37.3,10.6,36.8,10.3,36.5z"/>
<path class="st0" d="M10.4,33.1c0.2,0.5,0.7,0.8,1.2,0.8c0.7,0,1.4,0,2.1,0.1c0.4,0,0.5,0.4,0.8,0.6c0.3,0.3,0.4,0.3,0.4,0.3
	l0.4,0.3l0.4,0.3c0.1,0,0.1,0.1,0.2,0.2c0,0.2,0.1-0.4,0.3-0.3l-0.1-0.1c-0.4-0.3-0.9-0.3-1.4,0c-0.3,0.2-0.7,0.2-0.8,0.5
	c0,0.7,0.1,0.5,0.2,0.8c0,0.4,0.2,0.5,0.5,0.5c-0.4-0.1-0.1-0.9-0.3-1.1c0,0,1.1-0.8,1.7-0.3l0.1,0.1c0.1,0,0.3,0.2,0.3-0.1
	c0.1-0.3-0.1-0.2-0.1-0.2c-0.1-0.1-0.2-0.1-0.3-0.2l-0.5-0.3l-0.4-0.3c-0.2,0-0.3-0.5-1.3-1c-0.7-0.1-1.4-0.2-2.1-0.2
	C11.2,33.4,10.8,33.3,10.4,33.1z"/>
<path class="st0" d="M8.7,41.7c0-0.1,0-0.3-0.1-0.4c-0.1-0.2-0.2-0.4-0.3-0.6c-0.1-0.1,0-0.3-0.3-0.2c0,0.1,0,0.1,0,0.1
	c-0.1,0.4,0,0.8,0.1,1.1c0,0.1,0.1,0.3,0.2,0.4c0-0.1,0-0.3-0.1-0.4c-0.1-0.3-0.1-0.7-0.1-1c-0.1-0.5,0.2,0.6,0.3,0.7
	C8.6,41.4,8.6,41.5,8.7,41.7z"/>
<path class="st0" d="M6.9,39c0,0.1,0,0.1,0,0.2c0,0.1,0.2,0.5,0.2,0.5c0.1,0.2,0.2,0.4,0.3,0.5c0.1,0.1,0.1,0.1,0.2,0.1
	c0-0.1-0.1-0.1-0.1-0.2c-0.1-0.1-0.2-0.3-0.3-0.5c-0.1-0.2-0.2-0.3-0.2-0.5C7,39.1,7,39,6.9,39z"/>
<path class="st0" d="M6.7,39.2c0,0.1,0,0.2,0,0.3c0.1,0.2,0.1,0.5,0.2,0.7c0.1,0.2,0.2,0.4,0.4,0.6c0.1,0.1,0.2,0.1,0.3,0.1
	c-0.1-0.1-0.1-0.1-0.2-0.2c-0.2-0.2-0.3-0.4-0.4-0.6c-0.1-0.2-0.2-0.4-0.2-0.7C6.8,39.3,6.7,39.3,6.7,39.2z"/>
<path class="st0" d="M6.6,39.4c0,0.1,0,0.3,0,0.4c0,0.2,0.3,1.1,0.3,1c0.1,0.3,0.3,0.7,0.5,1c0.1,0.1,0.2,0.2,0.3,0.3
	c-0.1-0.1-0.1-0.2-0.2-0.3c-0.2-0.3-0.3-0.6-0.5-1c0,0-0.3-0.9-0.3-1C6.7,39.7,6.7,39.6,6.6,39.4z"/>
<path class="st0" d="M6.4,39.4c0,0.2,0,0.4,0,0.5c0.1,0.5,0.2,0.9,0.4,1.4c0.1,0.5,0.3,0.9,0.6,1.3c0.1,0.1,0.2,0.3,0.4,0.4
	c-0.1-0.2-0.2-0.3-0.3-0.4c-0.2-0.4-0.4-0.8-0.5-1.3c-0.1-0.4-0.2-0.9-0.3-1.4C6.6,39.7,6.5,39.6,6.4,39.4z"/>
<path class="st0" d="M7.5,43.4c-0.3-0.3-0.4-0.7-0.5-1.1c-0.2-0.6-0.3-1.2-0.4-1.8c-0.1-0.4-0.1-0.7-0.2-1c-0.3-0.4-0.1,0.3-0.2,0.1
	c0,1.1,0.1,2.2,0.4,3.3c0.1,0.4,0.4,0.8,0.7,1c-0.3-0.3-0.5-0.7-0.6-1.1c-0.3-1.1-0.4-2.2-0.4-3.3c0,0.2,0.1-0.5-0.1-0.1
	c0,0.3,0.1,0.6,0.2,1c0.1,0.6,0.3,1.2,0.4,1.8C6.9,42.8,7.2,43.2,7.5,43.4z"/>
<path class="st0" d="M6,39.3c-0.1,0.2-0.1,0.4-0.1,0.7c0,0.6,0,1.2,0,1.8c0,0.6,0.2,1.2,0.3,1.8c0.1,0.2,0.2,0.4,0.4,0.5
	c-0.1-0.2-0.2-0.4-0.3-0.6c-0.2-0.6-0.3-1.1-0.3-1.7c0,0,0-1.5,0-1.8C6.1,39.7,6,39.5,6,39.3z"/>
<path class="st0" d="M5.9,42.8c0-0.2,0-0.3-0.1-0.5c0-0.4-0.1-0.9-0.1-1.3c0,0,0-1.1,0-1.3c0-0.2,0-0.3,0-0.5
	c-0.1,0.2-0.1,0.3-0.1,0.5c0,0.2,0,1.3,0,1.3c0,0.4,0,0.9,0.1,1.3C5.7,42.5,5.8,42.7,5.9,42.8z"/>
<path class="st0" d="M5.5,39.1c-0.1,0.1-0.1,0.2-0.1,0.3c0,0.1-0.2,0.7-0.2,0.8c0,0.3,0,0.5,0,0.8c0,0.1,0.1,0.2,0.1,0.3
	c0-0.1,0-0.2,0-0.3c0-0.3,0-0.5,0.1-0.8c0,0,0.1-0.6,0.2-0.7C5.5,39.3,5.5,39.2,5.5,39.1z"/>
<path class="st0" d="M5.2,39c-0.1,0-0.1,0-0.1,0.1C5,39.2,5,39.3,4.9,39.4c-0.1,0.1-0.1,0.3-0.1,0.4c0,0.1,0,0.1,0,0.1
	c0,0,0.1-0.1,0.1-0.1C5,39.7,5,39.6,5,39.5c0-0.1,0.1-0.2,0.2-0.3C5.2,39.1,5.2,39,5.2,39z"/>
<path class="st0" d="M5.1,48.3c1.2,0.3,2.4,0.5,3.6,0.3c0.2,0,0.4-0.5,0.1-0.6c-0.3-0.2-0.1-0.3-0.3,0c0.2,0,0.7,0.2,0.8,0.5
	s0,0.2,0.1,0.8c0.2,0,0.2,0.5,0.3,0.3c-0.3,0.9,0.4,0.5,0.6,0.7c0.3,0.1,0.6,0.1,0.9,0c1-0.3,1.8-1.2,1.8-2.3c0-0.4,0-0.9,0-1.3
	c0,0-0.1-0.5,0-1.2c0.2-0.9,0.5-1.8,0.9-2.7c0.6-0.9,0.6-2.6-0.6-3.1c-0.5-0.3-0.8-0.2-0.5-0.5c0.1-0.1,0.3-0.1,0.4-0.5
	c0-0.2-0.1-0.4-0.2-0.5c-0.4-0.4-1,0.1-1.1,0.3c-0.1,0.2-0.3,0.4-0.5,0.6c-0.5,0.3-0.9,0.7-1.2,1.3c0.3-0.4,0.7-0.8,1.2-1
	c0.6-0.2,0.9-1.3,1.2-0.9c0.1,0.2,0.2,0-0.2,0.4c-0.1,0.1-0.4,0.5-0.1,0.8c0.2,0.1,0.4,0.2,0.7,0.3c0.8,0.6,1,1.7,0.4,2.5
	c0,0,0,0-0.1,0.1c-0.4,0.9-0.8,1.8-1,2.8c0,0.8,0.1,1.3,0,1.3c0,0.4,0,0.8,0,1.2c0.1,0.9-0.6,1.7-1.5,2c-0.5,0.3-1.1-0.3-1.4,0.1
	c0.7-0.4,0.1-0.8,0-1c0.2,0.2,0.1-0.5,0-0.6c-0.2-0.5-0.7-0.9-1.2-0.9c-0.4,1,0.5,0.7,0.1,0.7C7.5,48.3,6.3,48.3,5.1,48.3z"/>
<path class="st0" d="M5.9,49.3c0.2,0.1,0.3,0.2,0.5,0.2l1.4,0.1c0,0,1.2,0.1,1.4,0c0.2,0,0.4-0.1,0.5-0.2c-0.2,0-0.3,0-0.5,0
	c-0.2,0-1.4,0-1.4,0l-1.4-0.1C6.2,49.2,6.1,49.2,5.9,49.3z"/>
<path class="st0" d="M6,49.9C6.1,50,6.3,50,6.5,50l1.4,0.1l1.4,0.1c0.2,0,0.4,0,0.5-0.1c-0.2-0.1-0.3-0.2-0.5-0.2l-1.4-0.1l-1.4-0.1
	C6.3,49.8,6.1,49.8,6,49.9z"/>
<path class="st0" d="M6.2,50.5c0.1,0.1,0.3,0.2,0.5,0.2l1.4,0.1l1.4,0.1c0.2,0,0.4,0,0.5-0.1c-0.1-0.1-0.3-0.2-0.5-0.2l-1.4-0.1
	l-1.4-0.1C6.6,50.4,6.4,50.4,6.2,50.5z"/>
<path class="st0" d="M10.3,51.4c0-0.2-0.2-0.3-0.4-0.3c-0.2,0-1.3,0-1.3,0c-0.4,0-0.9-0.1-1.3-0.1c-0.2,0-0.3,0-0.5,0
	c0.1,0.1,0.3,0.2,0.4,0.3c0.4,0.1,0.9,0.1,1.4,0.1c0,0,1.1,0,1.3,0C10,51.4,10.1,51.3,10.3,51.4z"/>
<path class="st0" d="M10.4,52c0-0.2-0.2-0.3-0.4-0.3c-0.2,0-1.4,0-1.4-0.1c-0.4-0.1-0.9-0.1-1.3-0.3c-0.2,0-0.3-0.1-0.5-0.1
	c0.1,0.2,0.2,0.3,0.4,0.3c0.4,0.1,0.9,0.2,1.4,0.3c0,0,1.2,0.1,1.4,0.1C10.2,52,10.3,51.9,10.4,52z"/>
<path class="st0" d="M7.2,52.1c0.1,0.2,0.2,0.3,0.4,0.3C8,52.5,8.5,52.5,9,52.6l1.4,0.1c0.2,0,0.3-0.1,0.5,0c0-0.2-0.3-0.3-0.4-0.3
	c-0.2,0-1.4-0.1-1.4-0.1c-0.5,0-0.9-0.1-1.4-0.1C7.5,52.1,7.3,52.1,7.2,52.1z"/>
<path class="st0" d="M7.4,52.8c0.1,0.2,0.2,0.3,0.4,0.3c0.4,0.1,0.9,0.2,1.4,0.1c0.4,0,0.9,0,1.3,0c0.2,0.1,0.3,0,0.4,0.1
	c0.1-0.2-0.2-0.3-0.3-0.4c-0.5-0.1-0.9-0.1-1.4,0C8.7,53,8.3,53,7.9,52.9C7.7,52.8,7.6,52.8,7.4,52.8z"/>
<path class="st0" d="M7.7,53.2c0.1,0.2,0.2,0.3,0.4,0.3c0.4,0.1,0.8,0.1,1.3,0.1c0.4,0,0.8,0,1.2,0.1c0.2,0.1,0.2,0,0.3,0.2
	c0.1-0.2,0-0.4-0.2-0.4c-0.4-0.1-0.9-0.1-1.3-0.1c-0.4,0-0.8-0.1-1.2-0.1C7.9,53.3,7.8,53.3,7.7,53.2z"/>
<path class="st0" d="M10.1,50.1c-0.1,0.2-0.1,0.4-0.1,0.6c-0.1,0.2,0.5,1.8,0.6,1.6s0.3,1.2,0.2,1.4c-0.1,0.2-0.1,0.4,0,0.7
	c0.2-0.2,0.3-0.3,0.3-0.5c0.2-0.3,0-1.8-0.2-1.8c-0.2,0.1-0.5-1.1-0.5-1.5C10.4,50.4,10.3,50.2,10.1,50.1z"/>
<path class="st0" d="M13.3,50.1c0,0.3,0,0.5,0.1,0.8c0.3,0.4,0.1,2-0.2,1.8c-0.2,0.1-0.5,0.1-0.7,0c-0.3-0.2-0.6-0.5-0.8-0.8
	c-0.1-0.2-0.3-0.4-0.5-0.6c-0.1,0.3,0,0.6,0.1,0.8c0.2,0.4,0.6,0.7,1,1c0.3,0.2,0.7,0.2,1.1,0c0.3-0.2,0.5-0.6,0.5-1
	c0-0.4,0-0.9-0.1-1.3C13.8,50.5,13.6,50.3,13.3,50.1z"/>
<path class="st0" d="M18.6,21.5c-0.4,0-0.7-0.8-1.3-0.3c-0.2,0.5-0.3,1-0.3,1.5c-0.2,1.4-0.5,2.7-1,4c-0.1,1.1-0.1,2.2,0,3.3
	c0.2,0-0.4,1.5,0.2,3.3c0.2,0.4,0.5,0.7,0.7,1.1c0.1,0.1,0,0,0.3,0.3c0.4,0,0.4-0.2,0.5-0.2c0.1-0.2,0.3-0.3,0.4-0.5
	c0.3-0.5,0.6-1,0.8-1.5c0.2-0.5,0.3-0.9,0.3-1.4c0.1-0.5-0.4-1-0.9-0.8c1.1,0.1,0.5,1.2,0.2,2.1c-0.2,0.5-0.5,1-0.8,1.4
	c-0.1,0.2-0.2,0.3-0.3,0.4c0,0.1-0.2,0-0.1,0.2c0.2,0,0-0.2,0-0.3c-0.2-0.3-0.5-0.7-0.7-1c-0.4-1.4,0-3.1-0.1-3.1
	c-0.1-1-0.1-2.1,0-3.1c0.5-1.3,0.8-2.7,1-4.1c0-0.4,0-0.9,0.1-1.3C17.7,21,18.1,21.5,18.6,21.5z"/>
<path class="st0" d="M18.4,21.6c0.1,0.4,0.3,0.8,0.5,1.1c0.2,0-0.2,1,0,1.8c0.5,0.7,1,1.1,0.8,1.2c0.1,0.5,0.2,0.9,0.3,1.4l0.1,0.6
	c0.1,0.1-0.1,0.1,0.1,0.4l0.3,0.1c0.1-0.1,0.1,0.5,0.2,0.5c0,0.4,0.2,0.8,0.6,1.1c-0.2-0.3-0.3-0.7-0.3-1.1
	c-0.1-0.1,0.1-0.4-0.3-0.8l-0.3-0.1c0.2,0.2,0-0.1,0.1-0.2l-0.1-0.6c-0.1-0.5-0.2-1-0.3-1.5c0.1-0.1-0.4-0.6-0.8-1.2
	c-0.2-0.6,0.3-1.5,0-1.8C18.8,22.2,18.7,22,18.4,21.6z"/>
<path class="st0" d="M17.4,22.8c0,0.4,0.1,0.9,0.2,1.3c0.2,0.6,1.1,3.5,1.3,3.4c0,0,0.2,0.1,0.2,0.4c0.1,0-0.1,0.5,0.2,0.2L19,27.7
	c-0.4-0.5-0.8-1-1.2-1.6c-0.2-0.4-0.3-1-0.8-1c0.3,0.1,0.3,0.6,0.5,1.1c0.4,0.6,0.8,1.2,1.3,1.7l0.4,0.4c0.6-0.1,0.2-0.4,0.2-0.5
	c0-0.2-0.1-0.3-0.3-0.5c-0.2,0.2-1.1-2.8-1.3-3.3C17.8,23.7,17.6,23.2,17.4,22.8z"/>
<path class="st0" d="M18.8,32.7c0.3-0.6,0.6-1.1,0.9-1.6c0.1-0.2,0.4-0.5,0.5-0.6c0.3,0.1,0.5,0.4,0.6,0.7c0.1,0.1-0.1,0.4,0,1
	c0.1,0.5-0.3,0.2-0.9,0.3c0.9,1.7-1.8,0.3-2.1,1.9c-0.3,0.2-0.4,0.5-0.5,0.8c0.1,0.4,0.4,0.6,0.7,0.7s0.7,0.1,0.8-0.3
	c0.1-0.2,0.1-0.5,0.1-0.7c-0.1-0.3,0-0.6,0.2-0.8c-0.2-0.1,0,0.2-0.1,0.2c-0.1,0.5,0,1,0.2,1.5c0.4,0.2,0.8,0.5,1,1
	c0,0.3,0,1.4-0.5,1.1c-0.5,0.1-1-0.3-1.1-0.8c0,0,0-0.1,0-0.1c-0.2-0.2,0.2-0.8-0.4-0.7c-0.1,0.3-0.1,0.5-0.2,0.2
	c-0.1-0.3-0.2-0.5-0.4-0.7c-0.5-0.2-0.6,0.3-0.6,0.5c-0.1,0.5-0.1,0.5-0.3,0.2c-0.3-0.4-0.8-0.3-1.1-0.4c-0.5-0.1-0.6,0.5-0.6,0.7
	c0,0.6,0.6,0.2,0.8,0.2c0.2-0.3,0.3-0.7,0.6-0.4c-0.3-0.4-0.6,0.1-0.7,0.3c-0.2,0-0.8,0.1-0.5-0.1c0.1-0.4,0-0.6,0.4-0.5
	s0.7,0,0.9,0.3c0.9,1.1,0.7-1.9,1.2,0c0,0.1,0.3,0.4,0.5,0.2c0.1-0.1,0.2-0.3,0.2-0.5c-0.4-0.1,0,0.4-0.1,0.7
	c0.1,0.7,0.7,1.2,1.3,1.1c1,0,0.7-1,0.8-1.5c-0.2-0.5-0.6-0.8-1-1.1c-0.1-0.4-0.1-0.8-0.1-1.2c-0.1,0,0.3-0.2-0.3-0.4
	c-0.2,0.3-0.3,0.7-0.3,1.1c0,0.4,0,1-0.5,0.7s-0.6-0.6-0.1-1.1c0.5-0.4,0.7-0.9,1.4-0.9c0.3-0.1,0.6,0.1,1-0.3c0-0.3-0.2-1-0.3-0.6
	c0.2,0,0.5,0,0.7,0c0.4,0.1,0.5-0.5,0.4-0.6c-0.1-0.3,0.1-0.7,0-1c-0.1-0.4-0.4-0.7-0.8-0.9c-0.5,0.1-0.5,0.5-0.8,0.7
	C19.3,31.6,19,32.1,18.8,32.7z"/>
<path class="st0" d="M9.5,2.4C9.2,2.4,9,2.1,8.7,2.4c0,0.5,0.5,0.4,0.2,0.7c0,0-0.6,0.5-0.2,1C8.7,4.1,9,4.6,9.4,4.3
	C9.4,4.1,10,3.7,9.6,3.7C9.8,4.2,9.4,4.8,10,5c0.5,0.2,0.1-0.1,0.2,0.1c-0.7,0-1.3,0.1-1.9,0.5C8,5.7,7.8,5.8,7.6,6
	C7.5,6.1,7.4,6.3,7.4,6.5c0.2,0.3,0.4,0,0.5,0.1c0.3-0.1,0.6-0.2,1-0.3c0.6,0,1.1-0.2,1.6-0.5C9.9,5.9,9.4,6,8.8,6
	c-0.3,0-0.7,0.1-1,0.3C7.5,6.7,8,5.9,8.4,5.8C9,5.5,9.6,5.3,10.3,5.3c0,0,0.1,0,0.2-0.1c0.2-0.3-0.3-0.4-0.3-0.4
	C9.8,4.9,10,4.1,9.9,3.7c-1,1-1.3-0.4-0.7-0.5c0.2,0,0.1-0.5,0-0.5C9.1,2.5,9,2.5,9,2.4C8.8,2.4,9.2,2.5,9.5,2.4z"/>
<path class="st0" d="M9.7,8.8c0.2-0.1,0.3-0.3,0.4-0.5c0.1-0.3,0.4-0.5,0.7-0.5c0.2,0,0.4-0.1,0.6-0.1c0.1,0,0.2-0.1,0.2-0.2
	c-0.4-0.3-0.2,0-0.3-0.1c-0.1,0.3-0.2,0.6-0.2,0.9c0,0.3-0.6,0.4-0.7,0.4c-0.2,0-0.4,0.1-0.6,0.3c0.2,0,0.5,0,0.7,0
	c0.1-0.1,0.8,0,0.9-0.6c0-0.2,0-0.5,0.1-0.7c0.1-0.3-1.6,0-1.7,0.6C9.8,8.4,9.7,8.6,9.7,8.8z"/>
<path class="st0" d="M14.7,4.3c0-0.1,0.7-0.4,0.1-0.4C14.6,4.2,14,5.7,14,5.7c-0.4,0.5-0.7,1.1-1,1.8C13,7.7,13,8,13.1,8.2
	c0.1-0.3,0.1-0.4,0.2-0.7c0.2-0.6,0.5-1.2,0.9-1.7C14.5,5.3,14.8,4.7,15,4C14.8,3.4,14.8,4.2,14.7,4.3z"/>
<path class="st0" d="M10.3,39.3c-0.3,0.3-0.7,0.4-0.8,1.1c0.4,0.5,0.5,3.2,0.6,3.2c0.2,0,0.3,2.7-0.3,3c-0.3,0.3-0.4,0.8-0.3,1.2
	c0.1-0.4,0.4-0.6,0.6-1c0.7-0.4,0.5-3.3,0.4-3.3s-0.2-2.8-0.6-3.2C10,40,10.1,39.7,10.3,39.3z"/>
<path class="st0" d="M7.6,33.1c-0.2,0.3-0.4,0.4-0.7,0.7c-0.2,0.5-0.2,1.1,0.1,1.5c0.3,0.4-0.1,1,0,1c-0.1,0,0.1,0.6,0.1,1.2
	c0,0.3,0,0.6,0.2,0.9c0.2,0.1-0.1,0.3,0.4,0.2c0-0.1,0-0.2,0-0.2c-0.1-0.3,0-0.7,0.1-1c-0.3,0.2-0.4,0.6-0.4,1
	c0.4,0.6-0.3-2.3-0.1-2c-0.1,0,0.3-0.5,0-1.2c-0.3-0.3-0.2-1.3-0.2-1.2C7.4,33.7,7.5,33.4,7.6,33.1z"/>
</svg>
